<svg width="217" height="87" viewBox="0 0 217 87" fill="none" xmlns="http://www.w3.org/2000/svg">
<g clip-path="url(#clip0_1180_2196)">
<path d="M29.13 26.24L55.55 -0.0400391H2.70996L29.13 26.24Z" fill="url(#paint0_linear_1180_2196)"/>
<path d="M2.70996 57.9599L29.13 31.6699L55.55 57.9599H2.70996Z" fill="url(#paint1_linear_1180_2196)"/>
<path d="M-0.0302734 2.66992L26.3997 28.9499L-0.0302734 55.2299V2.66992Z" fill="url(#paint2_linear_1180_2196)"/>
<path d="M58.2799 2.66992V55.2299L31.8599 28.9499L58.2799 2.66992Z" fill="url(#paint3_linear_1180_2196)"/>
<path d="M76.8896 44.5499C76.0196 46.9099 75.5996 48.7999 75.5996 50.1999C75.5996 51.4199 76.0196 52.4199 76.8696 53.1899C77.7196 53.9599 78.7596 54.4099 79.9896 54.5299V55.2299H63.6396V54.5299C64.7096 54.2699 65.5396 53.9799 66.1196 53.6199C66.6896 53.2699 67.2496 52.7199 67.8096 51.9599C68.9796 50.2799 70.1796 47.7999 71.4096 44.5599L84.3496 10.5999C84.6096 9.91992 84.8196 9.32992 84.9896 8.83992C85.1596 8.34992 85.2997 7.85992 85.3997 7.36992C85.5097 6.89992 85.5596 6.40992 85.5596 5.94992C85.5596 5.24992 85.3296 4.67992 84.8696 4.24992C84.4096 3.81992 83.8096 3.53992 83.0496 3.40992V2.66992H100.89V3.40992C99.3296 3.82992 98.5396 4.78992 98.5396 6.29992C98.5396 6.99992 98.7896 8.02992 99.2896 9.37992L113.01 48.6899C113.98 50.9199 114.69 52.3699 115.14 53.0199C115.6 53.6699 116.52 54.1699 117.91 54.5399V55.2399H99.6796V54.5399C102.31 53.9399 103.63 52.0699 103.63 48.9299C103.63 46.4799 102.66 43.9399 100.73 41.2899C98.7897 38.6399 96.1396 36.4199 92.7696 34.6399C89.3996 32.8599 85.6496 31.9299 81.5196 31.8599L76.8896 44.5499ZM90.0296 8.66992L82.7396 27.8599C85.8496 27.8599 88.8296 28.3999 91.6796 29.4799C94.5296 30.5599 96.9597 32.1399 98.9797 34.2199L90.0296 8.66992Z" fill="white"/>
<path d="M144.91 44.8599C144.91 46.9899 145 48.6899 145.18 49.9499C145.37 51.2199 145.83 52.2799 146.58 53.1299C147.32 53.9899 148.51 54.4599 150.13 54.5299V55.2299H130.8V54.5299C132.42 54.4599 133.61 54.0199 134.35 53.2299C135.1 52.4399 135.56 51.4399 135.74 50.2499C135.92 49.0399 136.01 47.4099 136.01 45.3299V6.7999C131.06 6.7999 127.04 7.6399 123.98 9.3399C120.91 11.0299 118.63 13.7999 117.12 17.6499L116.37 17.4199L120.33 1.6499C120.65 2.0699 121.15 2.3399 121.84 2.4799C122.54 2.6099 123.61 2.6699 125.08 2.6699H155.89C157.35 2.6699 158.43 2.6099 159.12 2.4799C159.82 2.3399 160.32 2.0699 160.63 1.6499L164.55 17.4199L163.84 17.6499C162.32 13.7999 160.03 11.0299 156.96 9.3399C153.89 7.6499 149.87 6.7999 144.9 6.7999V44.8599H144.91Z" fill="white"/>
<path d="M170.669 13.1599C170.669 10.1899 170.379 7.90991 169.789 6.30991C169.199 4.70991 167.759 3.73991 165.459 3.39991V2.65991H184.709V3.39991C182.409 3.60991 180.969 4.46991 180.379 5.99991C179.789 7.51991 179.499 9.70991 179.499 12.5699V22.3199L186.399 16.8199C187.759 15.7599 189.239 14.5199 190.849 13.1099C192.459 11.7099 193.909 10.2799 195.219 8.82991C196.529 7.36991 197.179 6.19991 197.179 5.31991C197.179 4.63991 196.999 4.17991 196.649 3.92991C196.299 3.68991 195.759 3.50991 195.019 3.39991V2.65991H214.349V3.39991C212.469 3.49991 210.679 3.92991 208.979 4.66991C207.279 5.40991 205.799 6.23991 204.529 7.16991C203.259 8.08991 201.529 9.44991 199.329 11.2399L193.329 16.1999C196.079 18.7699 198.509 21.4699 200.639 24.2899C202.769 27.1099 204.679 30.0999 206.379 33.2399C208.079 36.3799 209.629 39.7199 211.049 43.2599L212.579 46.9299C213.289 48.6899 213.839 49.9999 214.229 50.7999C214.619 51.6199 215.199 52.4099 215.959 53.1799C216.719 53.9499 217.629 54.3999 218.709 54.5199V55.2199H201.029V54.5199C202.909 54.2099 203.849 53.1799 203.849 51.4099C203.849 49.5099 203.229 47.0199 201.989 43.9599C200.749 40.8899 199.409 38.1199 197.969 35.6499C195.249 30.9999 191.639 26.2199 187.149 21.2999L179.499 27.3499V44.7799C179.499 47.7499 179.789 50.0599 180.379 51.6999C180.969 53.3599 182.409 54.2999 184.709 54.5299V55.2299H165.459V54.5299C167.079 54.2699 168.259 53.7199 169.009 52.8599C169.749 52.0099 170.219 51.0099 170.399 49.8799C170.579 48.7499 170.669 47.2299 170.669 45.3299V13.1599Z" fill="white"/>
<path d="M5.75971 76.8398C6.59971 76.8398 7.33971 76.9698 7.95971 77.2398C8.57971 77.5098 9.06971 77.9098 9.40971 78.4498C9.74971 78.9898 9.91971 79.6598 9.91971 80.4498C9.91971 81.1998 9.74971 81.8298 9.40971 82.3498C9.06971 82.8698 8.58971 83.2498 7.96971 83.4998C7.34971 83.7498 6.64971 83.8798 5.86971 83.8798L4.29971 83.8198V85.1198C4.29971 85.4598 4.30971 85.7398 4.33971 85.9498C4.36971 86.1598 4.44971 86.3498 4.56971 86.4998C4.68971 86.6598 4.87971 86.7398 5.13971 86.7598V86.8898H1.94971V86.7598C2.32971 86.7398 2.56971 86.5898 2.65971 86.3098C2.75971 86.0398 2.79971 85.6398 2.79971 85.1198V78.5698C2.79971 78.0498 2.74971 77.6598 2.65971 77.3898C2.55971 77.1198 2.32971 76.9698 1.94971 76.9498V76.8198H5.75971V76.8398ZM4.27971 77.4398V81.8698C4.27971 82.2298 4.30971 82.4998 4.36971 82.6998C4.42971 82.8898 4.56971 83.0398 4.77971 83.1398C4.98971 83.2398 5.30971 83.2898 5.72971 83.2898C6.26971 83.2898 6.73971 83.1598 7.13971 82.8998C7.53971 82.6398 7.83971 82.2898 8.04971 81.8398C8.25971 81.3898 8.35971 80.8998 8.35971 80.3698C8.35971 79.4598 8.06971 78.7498 7.49971 78.2198C6.92971 77.6998 6.17971 77.4298 5.26971 77.4298H4.27971V77.4398Z" fill="white"/>
<path d="M11.6596 78.79C11.6596 78.28 11.6096 77.89 11.5096 77.62C11.4096 77.35 11.1696 77.19 10.7996 77.16V77.03L12.7896 76.84C12.9896 77.27 13.0996 77.79 13.1196 78.42C13.2396 78.13 13.4296 77.84 13.6996 77.58C13.9596 77.32 14.2596 77.1 14.5896 76.94C14.9196 76.78 15.2396 76.7 15.5596 76.7L16.0496 76.78L15.7296 78.21C15.4296 78.01 15.1296 77.91 14.8396 77.91C14.2096 77.91 13.7596 78.17 13.5096 78.69C13.2496 79.21 13.1296 79.88 13.1296 80.7V81.85C13.1296 82.33 13.1396 82.68 13.1696 82.91C13.1996 83.14 13.2696 83.32 13.3996 83.47C13.5196 83.62 13.7196 83.71 13.9896 83.76V83.88H10.7896V83.76C11.1696 83.72 11.3996 83.56 11.4996 83.29C11.5996 83.02 11.6496 82.63 11.6496 82.13V78.79H11.6596Z" fill="white"/>
<path d="M16.3999 80.41C16.3999 79.67 16.5699 79.02 16.9299 78.45C17.2799 77.88 17.7599 77.45 18.3699 77.15C18.9799 76.85 19.6499 76.7 20.3999 76.7C20.9599 76.7 21.4699 76.78 21.9399 76.93C22.3999 77.09 22.8099 77.32 23.1599 77.63C23.5099 77.94 23.7799 78.32 23.9799 78.77C24.1699 79.22 24.2699 79.72 24.2699 80.28C24.2699 80.86 24.1699 81.38 23.9699 81.84C23.7699 82.3 23.4899 82.69 23.1299 83.02C22.7599 83.35 22.3299 83.6 21.8399 83.77C21.3499 83.95 20.8199 84.04 20.2599 84.04C19.7099 84.04 19.1999 83.96 18.7399 83.8C18.2799 83.64 17.8699 83.4 17.5199 83.08C17.1599 82.76 16.8899 82.38 16.6999 81.92C16.4899 81.46 16.3999 80.96 16.3999 80.41ZM18.0299 80.13C18.0299 80.65 18.1099 81.16 18.2699 81.65C18.4299 82.14 18.6899 82.55 19.0399 82.87C19.3899 83.19 19.8399 83.35 20.3699 83.35C20.8199 83.35 21.2199 83.22 21.5599 82.95C21.8999 82.69 22.1699 82.33 22.3499 81.88C22.5299 81.44 22.6199 80.97 22.6199 80.47C22.6199 79.96 22.5399 79.47 22.3799 79C22.2199 78.53 21.9699 78.14 21.6199 77.84C21.2699 77.54 20.8299 77.39 20.2999 77.39C19.5399 77.39 18.9699 77.65 18.5899 78.17C18.2199 78.69 18.0299 79.34 18.0299 80.13Z" fill="white"/>
<path d="M26.0799 77.5899H25.1299V77.4599C25.5099 77.4299 25.7699 77.3099 25.8999 77.1299C26.0299 76.9399 26.0999 76.6399 26.1199 76.2199C26.1499 75.8199 26.2099 75.4799 26.2999 75.2099C26.3899 74.9399 26.5499 74.6899 26.7799 74.4599C27.0499 74.1999 27.3699 73.9999 27.7499 73.8699C28.1199 73.7399 28.5099 73.6699 28.8999 73.6699C29.3399 73.6699 29.8099 73.7599 30.3399 73.9299L29.8699 75.4299L29.7699 75.4199C29.7699 75.0799 29.6799 74.8299 29.4999 74.6399C29.3199 74.4599 29.0799 74.3699 28.7699 74.3699C28.2299 74.3699 27.8899 74.5599 27.7499 74.9399C27.6099 75.3199 27.5399 75.8399 27.5399 76.4899V76.9699H28.3599C28.7899 76.9699 29.0899 76.8899 29.2499 76.7399L28.8599 77.7099C28.8099 77.6299 28.6399 77.5799 28.3499 77.5799H27.5399V82.1299C27.5399 82.4999 27.5499 82.7899 27.5799 82.9999C27.6099 83.2199 27.6799 83.3899 27.8099 83.5399C27.9399 83.6899 28.1299 83.7599 28.3999 83.7599V83.8799H25.1999V83.7599C25.5799 83.7199 25.8099 83.5699 25.9199 83.2999C26.0199 83.0299 26.0699 82.6399 26.0699 82.1299V77.5899H26.0799Z" fill="white"/>
<path d="M31.8995 80.67C31.9795 81.16 32.1595 81.61 32.4395 82.01C32.7195 82.42 33.0795 82.74 33.5095 82.98C33.9395 83.22 34.3995 83.34 34.8895 83.34C35.1695 83.34 35.4695 83.27 35.8095 83.13C36.1395 82.99 36.4195 82.83 36.6395 82.64C36.8995 82.42 37.1495 82.05 37.4095 81.55L37.5395 81.61L36.7895 83.97C36.6895 83.91 36.5795 83.87 36.4595 83.87C36.3895 83.87 36.2995 83.88 36.1895 83.9L34.6795 84.03C34.2095 84.03 33.7095 83.95 33.1895 83.81C32.6695 83.67 32.1895 83.45 31.7495 83.14C31.3095 82.84 30.9495 82.46 30.6795 81.99C30.4095 81.52 30.2695 80.98 30.2695 80.37C30.2695 79.68 30.4395 79.05 30.7695 78.49C31.0995 77.93 31.5595 77.49 32.1395 77.17C32.7195 76.85 33.3595 76.7 34.0495 76.7C34.8395 76.7 35.5495 76.92 36.1695 77.36C36.7895 77.8 37.1995 78.4 37.3995 79.16L31.8995 80.67ZM35.7095 78.97C35.5595 78.53 35.3295 78.15 35.0195 77.85C34.7095 77.54 34.3395 77.39 33.9095 77.39C33.4595 77.39 33.0795 77.51 32.7595 77.76C32.4395 78.01 32.1995 78.34 32.0495 78.76C31.8895 79.18 31.8095 79.62 31.8095 80.08L35.7095 78.97Z" fill="white"/>
<path d="M44.1897 79.1299L44.0797 79.1499C44.0197 78.7899 43.8597 78.4799 43.6097 78.2099C43.3597 77.9399 43.0497 77.7299 42.6797 77.5899C42.3197 77.4499 41.9597 77.3799 41.5997 77.3799C41.3797 77.3799 41.1697 77.4099 40.9597 77.4599C40.7497 77.5199 40.5697 77.6099 40.4197 77.7499C40.2697 77.8799 40.1997 78.0599 40.1997 78.2799C40.1997 78.5999 40.3497 78.8299 40.6597 78.9599C40.9697 79.0899 41.5197 79.2799 42.3197 79.5099C43.1197 79.7399 43.7297 80.0099 44.1397 80.2999C44.5497 80.5999 44.7597 81.0299 44.7597 81.5899C44.7597 81.9799 44.6697 82.3299 44.4997 82.6399C44.3197 82.9499 44.0797 83.1999 43.7897 83.3999C43.4897 83.5999 43.1597 83.7499 42.7797 83.8599C42.4097 83.9699 42.0297 84.0199 41.6597 84.0199C41.2997 84.0199 40.9297 83.9899 40.5797 83.9299C40.2197 83.8699 39.8797 83.7999 39.5397 83.7199C39.2097 83.6399 39.0097 83.5899 38.9497 83.5899C38.8197 83.5899 38.6997 83.6599 38.5897 83.7899L38.4697 80.9999L38.5897 80.9699C38.6397 81.4299 38.7997 81.8399 39.0697 82.1999C39.3397 82.5699 39.6797 82.8499 40.0897 83.0499C40.5097 83.2399 40.9497 83.3399 41.4197 83.3399C41.6897 83.3399 41.9697 83.2899 42.2697 83.1899C42.5697 83.0899 42.8097 82.9399 42.9997 82.7399C43.1897 82.5399 43.2897 82.2999 43.2897 82.0199C43.2897 81.6599 43.1297 81.4099 42.7997 81.2599C42.4697 81.1099 41.9097 80.9199 41.1197 80.6799C40.3297 80.4399 39.7297 80.1799 39.3297 79.8799C38.9297 79.5899 38.7297 79.1499 38.7297 78.5799C38.7297 78.1399 38.8697 77.7799 39.1397 77.4999C39.4097 77.2099 39.7497 77.0099 40.1697 76.8799C40.5797 76.7499 40.9997 76.6899 41.4197 76.6899C41.7597 76.6899 42.0597 76.7099 42.3297 76.7499C42.5997 76.7999 42.8797 76.8499 43.1797 76.9099C43.4697 76.9799 43.6597 77.0099 43.7297 77.0099C43.8597 77.0099 43.9697 76.9699 44.0697 76.8999L44.1897 79.1299Z" fill="white"/>
<path d="M51.3799 79.1299L51.2699 79.1499C51.2099 78.7899 51.0499 78.4799 50.7999 78.2099C50.5499 77.9399 50.2399 77.7299 49.8699 77.5899C49.5099 77.4499 49.1499 77.3799 48.7899 77.3799C48.5699 77.3799 48.3599 77.4099 48.1499 77.4599C47.9399 77.5199 47.7599 77.6099 47.6099 77.7499C47.4599 77.8799 47.3899 78.0599 47.3899 78.2799C47.3899 78.5999 47.5399 78.8299 47.8499 78.9599C48.1599 79.0899 48.7099 79.2799 49.5099 79.5099C50.3099 79.7399 50.9199 80.0099 51.3299 80.2999C51.7399 80.5999 51.9499 81.0299 51.9499 81.5899C51.9499 81.9799 51.8599 82.3299 51.6799 82.6399C51.4999 82.9499 51.2599 83.1999 50.9699 83.3999C50.6699 83.5999 50.3399 83.7499 49.9699 83.8599C49.5999 83.9699 49.2199 84.0199 48.8499 84.0199C48.4899 84.0199 48.1199 83.9899 47.7699 83.9299C47.4099 83.8699 47.0699 83.7999 46.7299 83.7199C46.3899 83.6399 46.1999 83.5899 46.1399 83.5899C46.0099 83.5899 45.8999 83.6599 45.7799 83.7899L45.6699 80.9999L45.7899 80.9699C45.8399 81.4299 45.9999 81.8399 46.2699 82.1999C46.5399 82.5699 46.8799 82.8499 47.2899 83.0499C47.7099 83.2399 48.1499 83.3399 48.6099 83.3399C48.8799 83.3399 49.1699 83.2899 49.4599 83.1899C49.7599 83.0899 49.9999 82.9399 50.1899 82.7399C50.3799 82.5399 50.4799 82.2999 50.4799 82.0199C50.4799 81.6599 50.3199 81.4099 49.9899 81.2599C49.6599 81.1099 49.0999 80.9199 48.3099 80.6799C47.5199 80.4399 46.9199 80.1799 46.5199 79.8799C46.1199 79.5899 45.9199 79.1499 45.9199 78.5799C45.9199 78.1399 46.0499 77.7799 46.3299 77.4999C46.5999 77.2099 46.9499 77.0099 47.3599 76.8799C47.7699 76.7499 48.1899 76.6899 48.6099 76.6899C48.9499 76.6899 49.2499 76.7099 49.5199 76.7499C49.7899 76.7999 50.0799 76.8499 50.3699 76.9099C50.6599 76.9799 50.8499 77.0099 50.9199 77.0099C51.0499 77.0099 51.1599 76.9699 51.2599 76.8999L51.3799 79.1299Z" fill="white"/>
<path d="M55.1596 76.8398V82.1298C55.1596 82.6398 55.2096 83.0298 55.3096 83.3098C55.4096 83.5898 55.6496 83.7398 56.0296 83.7598V83.8798H52.8296V83.7598C53.2096 83.7198 53.4396 83.5698 53.5396 83.2898C53.6396 83.0198 53.6896 82.6299 53.6896 82.1199V78.7798C53.6896 78.2698 53.6396 77.8798 53.5396 77.6098C53.4396 77.3398 53.1996 77.1798 52.8296 77.1498V77.0198L55.1596 76.8398ZM53.4496 74.8998C53.4496 74.6998 53.4896 74.5298 53.5696 74.3598C53.6496 74.1998 53.7596 74.0699 53.9096 73.9799C54.0496 73.8899 54.2296 73.8398 54.4396 73.8398C54.7096 73.8398 54.9396 73.9398 55.1196 74.1498C55.3096 74.3498 55.3996 74.5898 55.3996 74.8598C55.3996 75.0298 55.3596 75.1999 55.2796 75.3699C55.1996 75.5399 55.0896 75.6698 54.9396 75.7798C54.7896 75.8798 54.6296 75.9298 54.4496 75.9298C54.1596 75.9298 53.9296 75.8298 53.7396 75.6298C53.5396 75.4298 53.4496 75.1898 53.4496 74.8998Z" fill="white"/>
<path d="M56.9595 80.41C56.9595 79.67 57.1295 79.02 57.4895 78.45C57.8395 77.88 58.3195 77.45 58.9295 77.15C59.5395 76.85 60.2095 76.7 60.9595 76.7C61.5195 76.7 62.0295 76.78 62.4995 76.93C62.9595 77.09 63.3695 77.32 63.7195 77.63C64.0695 77.94 64.3495 78.32 64.5395 78.77C64.7295 79.22 64.8295 79.72 64.8295 80.28C64.8295 80.86 64.7295 81.38 64.5295 81.84C64.3295 82.3 64.0495 82.69 63.6895 83.02C63.3195 83.35 62.8895 83.6 62.3995 83.77C61.9095 83.95 61.3795 84.04 60.8195 84.04C60.2695 84.04 59.7595 83.96 59.2995 83.8C58.8395 83.64 58.4295 83.4 58.0795 83.08C57.7295 82.76 57.4495 82.38 57.2595 81.92C57.0595 81.46 56.9595 80.96 56.9595 80.41ZM58.5895 80.13C58.5895 80.65 58.6695 81.16 58.8295 81.65C58.9995 82.14 59.2495 82.55 59.5995 82.87C59.9495 83.19 60.3995 83.35 60.9395 83.35C61.3895 83.35 61.7895 83.22 62.1295 82.95C62.4695 82.69 62.7395 82.33 62.9195 81.88C63.0995 81.44 63.1895 80.97 63.1895 80.47C63.1895 79.96 63.1095 79.47 62.9495 79C62.7895 78.53 62.5395 78.14 62.1895 77.84C61.8395 77.54 61.3995 77.39 60.8695 77.39C60.0995 77.39 59.5295 77.65 59.1595 78.17C58.7795 78.69 58.5895 79.34 58.5895 80.13Z" fill="white"/>
<path d="M66.6896 78.7699C66.6896 78.2599 66.6396 77.8699 66.5496 77.5999C66.4596 77.3299 66.2296 77.1799 65.8796 77.1499V77.0199L67.7996 76.8299C68.0196 77.2199 68.1396 77.7299 68.1596 78.3299C69.2296 77.2399 70.2096 76.6899 71.0796 76.6899C71.7896 76.6899 72.2796 76.8899 72.5296 77.2999C72.7896 77.7099 72.9196 78.2999 72.9196 79.0799V82.1099C72.9196 82.4499 72.9296 82.7299 72.9696 82.9399C72.9996 83.1499 73.0796 83.3399 73.2096 83.4899C73.3296 83.6499 73.5296 83.7299 73.7896 83.7499V83.8699H70.5896V83.7499C70.9696 83.7099 71.1996 83.5599 71.2996 83.2799C71.3996 83.0099 71.4496 82.6099 71.4496 82.0999V79.6299C71.4496 78.9999 71.3696 78.5199 71.2196 78.1999C71.0696 77.8699 70.7696 77.7099 70.3396 77.7099C70.1296 77.7099 69.9196 77.7599 69.6996 77.8499C69.4796 77.9399 69.2796 78.0699 69.0796 78.2399C68.8896 78.3999 68.7196 78.5699 68.5996 78.7599C68.4096 79.0399 68.2896 79.3199 68.2396 79.5899C68.1896 79.8599 68.1696 80.2299 68.1696 80.6999V82.0999C68.1696 82.4399 68.1896 82.7099 68.2196 82.9199C68.2496 83.1299 68.3296 83.3199 68.4496 83.4699C68.5696 83.6299 68.7596 83.7299 69.0196 83.7599V83.8699H65.8496V83.7499C66.2296 83.7099 66.4696 83.5499 66.5596 83.2799C66.6596 83.0099 66.6996 82.6199 66.6996 82.1099V78.7699H66.6896Z" fill="white"/>
<path d="M80.3996 83.89C80.0896 83.49 79.9295 83.06 79.9195 82.6C79.6495 83.08 79.2595 83.44 78.7395 83.68C78.2195 83.92 77.6595 84.04 77.0595 84.04C76.3895 84.04 75.8495 83.89 75.4195 83.59C74.9995 83.29 74.7896 82.89 74.7896 82.37C74.7896 81.84 74.9595 81.4 75.2995 81.03C75.6395 80.66 76.0696 80.36 76.5796 80.14C77.0896 79.91 77.6896 79.72 78.3596 79.56C79.0396 79.4 79.5195 79.28 79.7995 79.21V78.94C79.7995 78.41 79.6895 78.05 79.4795 77.83C79.2595 77.62 78.8896 77.52 78.3596 77.52C77.6696 77.52 77.0495 77.68 76.5195 78.01C75.9795 78.34 75.5696 78.82 75.2896 79.45L75.5195 77.11C75.6895 77.24 75.8395 77.3 75.9595 77.3C76.0595 77.3 76.2195 77.26 76.4495 77.18C76.9195 77.02 77.3296 76.9 77.6796 76.82C78.0396 76.75 78.4495 76.71 78.9395 76.71C79.4195 76.71 79.8096 76.75 80.1096 76.84C80.4096 76.92 80.6595 77.06 80.8395 77.24C81.0295 77.43 81.1595 77.67 81.2395 77.96C81.3195 78.26 81.3596 78.64 81.3596 79.1V81.79C81.3596 82.18 81.3795 82.49 81.4095 82.73C81.4395 82.97 81.5395 83.19 81.6895 83.38C81.8395 83.57 82.0695 83.7 82.3795 83.76V83.89H80.3996ZM79.7995 79.78C78.9595 79.96 78.1895 80.24 77.4795 80.62C76.7695 81.01 76.4195 81.52 76.4195 82.16C76.4195 82.48 76.5296 82.74 76.7596 82.93C76.9896 83.12 77.2596 83.22 77.5796 83.22C78.3896 83.22 78.9596 82.93 79.2896 82.36C79.6196 81.79 79.7896 81.04 79.7896 80.13V79.78H79.7995Z" fill="white"/>
<path d="M85.0795 74.1099V82.1299C85.0795 82.6399 85.1295 83.0299 85.2295 83.3099C85.3295 83.5899 85.5695 83.7399 85.9495 83.7599V83.8799H82.7495V83.7599C83.0095 83.7299 83.2095 83.6299 83.3395 83.4699C83.4695 83.3099 83.5495 83.1299 83.5795 82.9299C83.6095 82.7299 83.6195 82.4599 83.6195 82.1299V76.2399C83.6195 75.7099 83.5695 75.3099 83.4695 75.0399C83.3695 74.7699 83.1295 74.6199 82.7595 74.6099V74.4799L85.0795 74.1099Z" fill="white"/>
<path d="M93.7099 74.1099V82.1299C93.7099 82.6399 93.7599 83.0299 93.8599 83.3099C93.9599 83.5899 94.1999 83.7399 94.5799 83.7599V83.8799H91.3799V83.7599C91.6399 83.7299 91.8399 83.6299 91.9699 83.4699C92.0999 83.3099 92.1799 83.1299 92.2099 82.9299C92.2399 82.7299 92.2499 82.4599 92.2499 82.1299V76.2399C92.2499 75.7099 92.1999 75.3099 92.0999 75.0399C91.9999 74.7699 91.7599 74.6199 91.3899 74.6099V74.4799L93.7099 74.1099Z" fill="white"/>
<path d="M95.5098 80.41C95.5098 79.67 95.6798 79.02 96.0398 78.45C96.3898 77.88 96.8698 77.45 97.4798 77.15C98.0898 76.85 98.7598 76.7 99.5098 76.7C100.07 76.7 100.59 76.78 101.05 76.93C101.51 77.09 101.92 77.32 102.27 77.63C102.62 77.94 102.89 78.32 103.09 78.77C103.29 79.22 103.38 79.72 103.38 80.28C103.38 80.86 103.28 81.38 103.08 81.84C102.88 82.3 102.6 82.69 102.24 83.02C101.87 83.35 101.45 83.6 100.95 83.77C100.46 83.95 99.9298 84.04 99.3698 84.04C98.8198 84.04 98.3098 83.96 97.8498 83.8C97.3898 83.64 96.9798 83.4 96.6298 83.08C96.2798 82.76 95.9998 82.38 95.8098 81.92C95.5998 81.46 95.5098 80.96 95.5098 80.41ZM97.1398 80.13C97.1398 80.65 97.2198 81.16 97.3798 81.65C97.5398 82.14 97.7998 82.55 98.1498 82.87C98.4998 83.19 98.9498 83.35 99.4798 83.35C99.9298 83.35 100.33 83.22 100.67 82.95C101.01 82.69 101.28 82.33 101.46 81.88C101.64 81.44 101.73 80.97 101.73 80.47C101.73 79.96 101.65 79.47 101.49 79C101.33 78.53 101.08 78.14 100.73 77.84C100.38 77.54 99.9398 77.39 99.4098 77.39C98.6498 77.39 98.0798 77.65 97.6998 78.17C97.3298 78.69 97.1398 79.34 97.1398 80.13Z" fill="white"/>
<path d="M111.49 76.8398V76.9698C111.14 76.9898 110.91 77.0898 110.8 77.2798C110.69 77.4698 110.63 77.7398 110.63 78.0998V78.5998V82.3598C110.63 82.6398 110.65 82.8298 110.69 82.9598C110.73 83.0898 110.85 83.2398 111.03 83.4298C111.24 83.6298 111.39 83.8198 111.5 83.9998C111.6 84.1798 111.66 84.3899 111.66 84.6599C111.66 85.0199 111.55 85.3499 111.34 85.6599C111.13 85.9599 110.84 86.2198 110.48 86.4198C110.12 86.6198 109.7 86.7798 109.23 86.8798C108.76 86.9798 108.28 87.0398 107.8 87.0398C107.07 87.0398 106.38 86.9298 105.73 86.7198C105.08 86.5098 104.52 86.1598 104.04 85.6898L105.66 84.0798L105.73 84.1599C105.6 84.3899 105.53 84.5998 105.53 84.7898C105.53 85.2598 105.75 85.6398 106.17 85.9398C106.6 86.2398 107.15 86.3898 107.81 86.3898C108.24 86.3898 108.64 86.3298 109 86.1998C109.36 86.0698 109.64 85.8998 109.84 85.6698C110.03 85.4398 110.13 85.1798 110.13 84.8898C110.13 84.4698 110 84.1998 109.74 84.0798C109.48 83.9598 109.11 83.8998 108.62 83.8998C108.2 83.8998 107.82 83.8898 107.48 83.8598C107.14 83.8298 106.81 83.7699 106.48 83.6599C106.16 83.5599 105.85 83.3998 105.56 83.1998C105.23 82.9698 104.95 82.6899 104.73 82.3699C104.51 82.0499 104.34 81.6898 104.23 81.3098C104.12 80.9298 104.07 80.5398 104.07 80.1398C104.07 79.5998 104.15 79.1298 104.31 78.7098C104.47 78.2898 104.7 77.9498 104.99 77.6698C105.29 77.3998 105.65 77.1899 106.08 77.0499C106.51 76.9099 106.99 76.8398 107.51 76.8398H111.49ZM109.17 78.5698C109.17 78.0998 109.1 77.7898 108.97 77.6398C108.77 77.4898 108.45 77.4099 108.02 77.4099C107.5 77.4099 107.06 77.5298 106.71 77.7798C106.35 78.0298 106.08 78.3598 105.91 78.7698C105.74 79.1798 105.65 79.6398 105.65 80.1498C105.65 80.7598 105.78 81.2998 106.05 81.7698C106.32 82.2398 106.67 82.5898 107.11 82.8398C107.55 83.0798 108.01 83.2098 108.51 83.2098L109.19 83.1698V78.5698H109.17Z" fill="white"/>
<path d="M114.42 76.8398V82.1298C114.42 82.6398 114.47 83.0298 114.57 83.3098C114.67 83.5898 114.91 83.7398 115.29 83.7598V83.8798H112.09V83.7598C112.47 83.7198 112.7 83.5698 112.8 83.2898C112.9 83.0198 112.95 82.6299 112.95 82.1199V78.7798C112.95 78.2698 112.9 77.8798 112.8 77.6098C112.7 77.3398 112.46 77.1798 112.09 77.1498V77.0198L114.42 76.8398ZM112.71 74.8998C112.71 74.6998 112.75 74.5298 112.83 74.3598C112.91 74.1998 113.02 74.0699 113.17 73.9799C113.32 73.8899 113.49 73.8398 113.7 73.8398C113.97 73.8398 114.19 73.9398 114.38 74.1498C114.57 74.3498 114.66 74.5898 114.66 74.8598C114.66 75.0298 114.62 75.1999 114.54 75.3699C114.46 75.5399 114.35 75.6698 114.2 75.7798C114.05 75.8798 113.89 75.9298 113.71 75.9298C113.42 75.9298 113.19 75.8298 113 75.6298C112.8 75.4298 112.71 75.1898 112.71 74.8998Z" fill="white"/>
<path d="M121.86 79.1299L121.75 79.1499C121.69 78.7899 121.53 78.4799 121.28 78.2099C121.02 77.9399 120.72 77.7299 120.35 77.5899C119.99 77.4499 119.63 77.3799 119.27 77.3799C119.06 77.3799 118.84 77.4099 118.63 77.4599C118.42 77.5199 118.24 77.6099 118.09 77.7499C117.94 77.8799 117.87 78.0599 117.87 78.2799C117.87 78.5999 118.03 78.8299 118.33 78.9599C118.64 79.0899 119.19 79.2799 119.99 79.5099C120.79 79.7399 121.4 80.0099 121.81 80.2999C122.22 80.5999 122.43 81.0299 122.43 81.5899C122.43 81.9799 122.34 82.3299 122.16 82.6399C121.98 82.9499 121.75 83.1999 121.45 83.3999C121.15 83.5999 120.82 83.7499 120.44 83.8599C120.07 83.9699 119.7 84.0199 119.32 84.0199C118.96 84.0199 118.6 83.9899 118.24 83.9299C117.88 83.8699 117.54 83.7999 117.2 83.7199C116.87 83.6399 116.67 83.5899 116.61 83.5899C116.48 83.5899 116.37 83.6599 116.25 83.7899L116.13 80.9799L116.25 80.9499C116.3 81.4099 116.46 81.8199 116.73 82.1799C117 82.5499 117.34 82.8299 117.75 83.0299C118.17 83.2199 118.61 83.3199 119.08 83.3199C119.35 83.3199 119.64 83.2699 119.93 83.1699C120.23 83.0699 120.47 82.9199 120.66 82.7199C120.85 82.5199 120.95 82.2799 120.95 81.9999C120.95 81.6399 120.79 81.3899 120.46 81.2399C120.13 81.0899 119.57 80.8999 118.78 80.6599C117.98 80.4199 117.39 80.1599 116.99 79.8599C116.59 79.5699 116.39 79.1299 116.39 78.5599C116.39 78.1199 116.52 77.7599 116.8 77.4799C117.07 77.1899 117.41 76.9899 117.83 76.8599C118.25 76.7299 118.66 76.6699 119.09 76.6699C119.43 76.6699 119.73 76.6899 120 76.7299C120.27 76.7799 120.55 76.8299 120.85 76.8899C121.14 76.9599 121.33 76.9899 121.4 76.9899C121.53 76.9899 121.64 76.9499 121.74 76.8799L121.86 79.1299Z" fill="white"/>
<path d="M123.85 77.5899H122.9V77.4599C123.29 77.3699 123.59 77.1499 123.8 76.8199C124.01 76.4899 124.11 76.0999 124.11 75.6799C124.11 75.5199 124.08 75.2799 124.03 74.9499L125.32 74.3799V76.9799H126.47C126.69 76.9799 126.87 76.9699 127 76.9399C127.13 76.9099 127.26 76.8499 127.39 76.7399L126.99 77.7499C126.89 77.6499 126.68 77.5999 126.37 77.5999H125.32V81.7699C125.32 82.0899 125.34 82.3599 125.4 82.5699C125.45 82.7799 125.55 82.9399 125.7 83.0499C125.85 83.1599 126.06 83.2199 126.35 83.2199C126.89 83.2199 127.35 82.9999 127.71 82.5599L127.79 82.6099L127.3 83.7899C126.74 83.9699 126.14 84.0599 125.5 84.0599C125.06 84.0599 124.72 83.9699 124.47 83.7899C124.23 83.6099 124.06 83.3699 123.97 83.0699C123.88 82.7699 123.84 82.3999 123.84 81.9699V77.5899H123.85Z" fill="white"/>
<path d="M130.53 76.8398V82.1298C130.53 82.6398 130.58 83.0298 130.68 83.3098C130.78 83.5898 131.02 83.7398 131.4 83.7598V83.8798H128.2V83.7598C128.58 83.7198 128.81 83.5698 128.91 83.2898C129.01 83.0198 129.06 82.6299 129.06 82.1199V78.7798C129.06 78.2698 129.01 77.8798 128.91 77.6098C128.81 77.3398 128.57 77.1798 128.2 77.1498V77.0198L130.53 76.8398ZM128.81 74.8998C128.81 74.6998 128.85 74.5298 128.93 74.3598C129.01 74.1998 129.12 74.0699 129.27 73.9799C129.42 73.8899 129.59 73.8398 129.8 73.8398C130.07 73.8398 130.29 73.9398 130.48 74.1498C130.67 74.3498 130.76 74.5898 130.76 74.8598C130.76 75.0298 130.72 75.1999 130.64 75.3699C130.56 75.5399 130.45 75.6698 130.3 75.7798C130.15 75.8798 129.99 75.9298 129.81 75.9298C129.53 75.9298 129.29 75.8298 129.1 75.6298C128.91 75.4298 128.81 75.1898 128.81 74.8998Z" fill="white"/>
<path d="M138.64 83.9899C138.52 83.9399 138.42 83.9199 138.34 83.9199L138.08 83.9299L137.67 83.9699L136.72 84.0299C135.94 84.0299 135.22 83.8699 134.56 83.5599C133.9 83.2499 133.38 82.7899 132.99 82.1999C132.6 81.6099 132.41 80.9099 132.41 80.1199C132.41 79.4799 132.55 78.8899 132.83 78.3699C133.11 77.8499 133.51 77.4399 134.03 77.1399C134.54 76.8399 135.12 76.6899 135.77 76.6899L136.8 76.7599L137.72 76.8399C137.96 76.8399 138.16 76.7899 138.33 76.6899L138.74 78.8899L138.66 78.9299C138.42 78.4399 138.09 78.0599 137.69 77.7799C137.29 77.5099 136.82 77.3699 136.3 77.3699C135.82 77.3699 135.4 77.4999 135.05 77.7799C134.7 78.0499 134.43 78.3999 134.25 78.8499C134.07 79.2899 133.98 79.7499 133.98 80.2299C133.98 81.0399 134.22 81.7299 134.72 82.2999C134.98 82.6099 135.3 82.8599 135.67 83.0499C136.04 83.2399 136.42 83.3399 136.81 83.3399C137.32 83.3399 137.8 83.2099 138.27 82.9399C138.73 82.6699 139.08 82.3199 139.31 81.8699L139.41 81.9299L138.64 83.9899Z" fill="white"/>
<path d="M145.73 79.1299L145.62 79.1499C145.56 78.7899 145.4 78.4799 145.15 78.2099C144.9 77.9399 144.59 77.7299 144.22 77.5899C143.86 77.4499 143.5 77.3799 143.13 77.3799C142.92 77.3799 142.7 77.4099 142.49 77.4599C142.28 77.5199 142.1 77.6099 141.95 77.7499C141.8 77.8799 141.73 78.0599 141.73 78.2799C141.73 78.5999 141.89 78.8299 142.19 78.9599C142.5 79.0899 143.05 79.2799 143.85 79.5099C144.65 79.7399 145.26 80.0099 145.67 80.2999C146.08 80.5999 146.29 81.0299 146.29 81.5899C146.29 81.9799 146.2 82.3299 146.02 82.6399C145.84 82.9499 145.6 83.1999 145.31 83.3999C145.01 83.5999 144.68 83.7499 144.31 83.8599C143.94 83.9699 143.56 84.0199 143.19 84.0199C142.83 84.0199 142.46 83.9899 142.11 83.9299C141.75 83.8699 141.41 83.7999 141.07 83.7199C140.73 83.6399 140.54 83.5899 140.48 83.5899C140.35 83.5899 140.24 83.6599 140.12 83.7899L140 80.9799L140.12 80.9499C140.17 81.4099 140.33 81.8199 140.6 82.1799C140.87 82.5499 141.21 82.8299 141.62 83.0299C142.04 83.2199 142.48 83.3199 142.95 83.3199C143.22 83.3199 143.5 83.2699 143.8 83.1699C144.1 83.0699 144.34 82.9199 144.53 82.7199C144.72 82.5199 144.82 82.2799 144.82 81.9999C144.82 81.6399 144.66 81.3899 144.33 81.2399C144 81.0899 143.44 80.8999 142.65 80.6599C141.85 80.4199 141.26 80.1599 140.86 79.8599C140.46 79.5699 140.26 79.1299 140.26 78.5599C140.26 78.1199 140.4 77.7599 140.67 77.4799C140.94 77.1899 141.28 76.9899 141.7 76.8599C142.11 76.7299 142.53 76.6699 142.95 76.6699C143.28 76.6699 143.59 76.6899 143.86 76.7299C144.13 76.7799 144.41 76.8299 144.71 76.8899C145 76.9599 145.19 76.9899 145.26 76.9899C145.39 76.9899 145.51 76.9499 145.6 76.8799L145.73 79.1299Z" fill="white"/>
<path d="M158.2 83.9899C158.08 83.9399 157.98 83.9199 157.9 83.9199L157.64 83.9299L157.23 83.9699L156.28 84.0299C155.5 84.0299 154.78 83.8699 154.13 83.5599C153.47 83.2499 152.94 82.7899 152.55 82.1999C152.16 81.6099 151.97 80.9099 151.97 80.1199C151.97 79.4799 152.11 78.8899 152.4 78.3699C152.68 77.8499 153.08 77.4399 153.6 77.1399C154.12 76.8399 154.69 76.6899 155.34 76.6899L156.37 76.7599L157.29 76.8399C157.53 76.8399 157.73 76.7899 157.89 76.6899L158.3 78.8899L158.22 78.9299C157.98 78.4399 157.66 78.0599 157.25 77.7799C156.85 77.5099 156.39 77.3699 155.86 77.3699C155.38 77.3699 154.96 77.4999 154.61 77.7799C154.26 78.0499 153.99 78.3999 153.8 78.8499C153.62 79.2899 153.53 79.7499 153.53 80.2299C153.53 81.0399 153.77 81.7299 154.27 82.2999C154.53 82.6099 154.85 82.8599 155.22 83.0499C155.59 83.2399 155.97 83.3399 156.36 83.3399C156.87 83.3399 157.36 83.2099 157.82 82.9399C158.28 82.6699 158.63 82.3199 158.86 81.8699L158.96 81.9299L158.2 83.9899Z" fill="white"/>
<path d="M159.65 80.41C159.65 79.67 159.83 79.02 160.18 78.45C160.53 77.88 161.01 77.45 161.62 77.15C162.23 76.85 162.9 76.7 163.65 76.7C164.21 76.7 164.72 76.78 165.19 76.93C165.65 77.09 166.06 77.32 166.41 77.63C166.76 77.94 167.03 78.32 167.23 78.77C167.43 79.22 167.52 79.72 167.52 80.28C167.52 80.86 167.42 81.38 167.22 81.84C167.02 82.3 166.74 82.69 166.37 83.02C166 83.35 165.58 83.6 165.08 83.77C164.59 83.95 164.06 84.04 163.5 84.04C162.95 84.04 162.44 83.96 161.98 83.8C161.52 83.64 161.11 83.4 160.76 83.08C160.4 82.76 160.13 82.38 159.94 81.92C159.75 81.46 159.65 80.96 159.65 80.41ZM161.29 80.13C161.29 80.65 161.37 81.16 161.53 81.65C161.69 82.14 161.95 82.55 162.3 82.87C162.65 83.19 163.1 83.35 163.63 83.35C164.08 83.35 164.48 83.22 164.82 82.95C165.16 82.69 165.43 82.33 165.61 81.88C165.79 81.44 165.88 80.97 165.88 80.47C165.88 79.96 165.8 79.47 165.64 79C165.48 78.53 165.23 78.14 164.88 77.84C164.53 77.54 164.09 77.39 163.56 77.39C162.8 77.39 162.23 77.65 161.85 78.17C161.48 78.69 161.29 79.34 161.29 80.13Z" fill="white"/>
<path d="M169.309 78.7899C169.309 78.2799 169.259 77.8899 169.159 77.6199C169.059 77.3499 168.819 77.1899 168.449 77.1599V77.0299L170.409 76.8399C170.629 77.2099 170.749 77.7199 170.779 78.3699C171.889 77.2599 172.919 76.6999 173.869 76.6999C174.369 76.6999 174.759 76.8399 175.039 77.1199C175.329 77.3999 175.499 77.7999 175.549 78.2899C175.889 77.9799 176.219 77.7199 176.539 77.4899C176.849 77.2599 177.199 77.0799 177.559 76.9199C177.919 76.7699 178.289 76.6899 178.659 76.6899C179.039 76.6899 179.349 76.7799 179.589 76.9599C179.829 77.1399 180.009 77.3999 180.129 77.7399C180.249 78.0799 180.309 78.4699 180.309 78.9099V82.1099C180.309 82.6199 180.359 83.0099 180.459 83.2899C180.559 83.5699 180.809 83.7199 181.199 83.7399V83.8599H178.029V83.7399C178.279 83.7099 178.459 83.6099 178.569 83.4599C178.689 83.2999 178.759 83.1199 178.789 82.9099C178.819 82.6999 178.829 82.4299 178.829 82.0999V79.4799C178.829 79.1199 178.809 78.8099 178.759 78.5499C178.709 78.2899 178.609 78.0799 178.439 77.9299C178.269 77.7699 178.029 77.6999 177.709 77.6999C177.389 77.6999 177.079 77.7999 176.759 77.9999C176.439 78.1999 176.189 78.4399 175.999 78.7199C175.789 79.0299 175.669 79.3499 175.619 79.6799C175.569 80.0099 175.539 80.4299 175.539 80.9499V82.1099C175.539 82.6199 175.589 83.0099 175.689 83.2899C175.789 83.5699 176.039 83.7199 176.439 83.7399V83.8599H173.239V83.7399C173.599 83.6999 173.829 83.5499 173.919 83.2699C174.009 82.9999 174.059 82.6099 174.059 82.0999V79.4799C174.059 78.9199 173.989 78.4799 173.839 78.1599C173.699 77.8399 173.399 77.6899 172.959 77.6899C172.689 77.6899 172.419 77.7699 172.129 77.9199C171.839 78.0699 171.599 78.2599 171.409 78.4699C171.149 78.7499 170.979 79.0399 170.889 79.3499C170.799 79.6599 170.759 80.0399 170.759 80.4799V82.0899C170.759 82.5799 170.809 82.9699 170.909 83.2499C171.009 83.5299 171.239 83.6899 171.619 83.7199V83.8399H168.439V83.7199C168.819 83.6799 169.049 83.5299 169.149 83.2499C169.249 82.9799 169.299 82.5899 169.299 82.0799V78.7899H169.309Z" fill="white"/>
<path d="M185.85 76.8398C186.69 76.8398 187.43 76.9698 188.05 77.2398C188.67 77.5098 189.15 77.9098 189.49 78.4498C189.83 78.9898 190 79.6598 190 80.4498C190 81.1998 189.83 81.8298 189.49 82.3498C189.15 82.8698 188.67 83.2498 188.06 83.4998C187.44 83.7498 186.74 83.8798 185.96 83.8798L184.39 83.8198V85.1198C184.39 85.4598 184.4 85.7398 184.43 85.9498C184.46 86.1598 184.54 86.3498 184.67 86.4998C184.79 86.6598 184.98 86.7398 185.24 86.7598V86.8898H182.05V86.7598C182.43 86.7398 182.67 86.5898 182.76 86.3098C182.86 86.0398 182.9 85.6398 182.9 85.1198V78.5698C182.9 78.0498 182.85 77.6598 182.76 77.3898C182.66 77.1198 182.43 76.9698 182.05 76.9498V76.8198H185.85V76.8398ZM184.36 77.4398V81.8698C184.36 82.2298 184.39 82.4998 184.46 82.6998C184.52 82.8898 184.66 83.0398 184.87 83.1398C185.08 83.2398 185.4 83.2898 185.82 83.2898C186.36 83.2898 186.83 83.1598 187.23 82.8998C187.63 82.6398 187.93 82.2898 188.14 81.8398C188.35 81.3898 188.45 80.8998 188.45 80.3698C188.45 79.4598 188.16 78.7498 187.59 78.2198C187.02 77.6998 186.27 77.4298 185.35 77.4298H184.36V77.4398Z" fill="white"/>
<path d="M196.62 83.89C196.31 83.49 196.15 83.06 196.13 82.6C195.86 83.08 195.47 83.44 194.95 83.68C194.43 83.92 193.87 84.04 193.27 84.04C192.6 84.04 192.05 83.89 191.63 83.59C191.21 83.29 191 82.89 191 82.37C191 81.84 191.17 81.4 191.52 81.03C191.86 80.66 192.29 80.36 192.8 80.14C193.31 79.91 193.91 79.72 194.58 79.56C195.26 79.4 195.74 79.28 196.02 79.21V78.94C196.02 78.41 195.91 78.05 195.7 77.83C195.48 77.62 195.11 77.52 194.58 77.52C193.89 77.52 193.27 77.68 192.74 78.01C192.21 78.34 191.8 78.82 191.51 79.45L191.74 77.11C191.91 77.24 192.06 77.3 192.18 77.3C192.28 77.3 192.44 77.26 192.66 77.18C193.13 77.02 193.54 76.9 193.9 76.82C194.25 76.75 194.68 76.71 195.16 76.71C195.64 76.71 196.03 76.75 196.33 76.84C196.63 76.92 196.87 77.06 197.06 77.24C197.25 77.43 197.38 77.67 197.46 77.96C197.54 78.26 197.58 78.64 197.58 79.1V81.79C197.58 82.18 197.6 82.49 197.63 82.73C197.66 82.97 197.76 83.19 197.91 83.38C198.06 83.57 198.29 83.7 198.6 83.76V83.89H196.62ZM196.02 79.78C195.18 79.96 194.41 80.24 193.7 80.62C192.99 81.01 192.64 81.52 192.64 82.16C192.64 82.48 192.76 82.74 192.99 82.93C193.22 83.12 193.49 83.22 193.81 83.22C194.62 83.22 195.19 82.93 195.52 82.36C195.85 81.79 196.02 81.04 196.02 80.13V79.78Z" fill="white"/>
<path d="M199.89 78.7699C199.89 78.2599 199.84 77.8699 199.75 77.5999C199.66 77.3299 199.43 77.1799 199.08 77.1499V77.0199L201 76.8299C201.22 77.2199 201.34 77.7299 201.36 78.3299C202.43 77.2399 203.41 76.6899 204.28 76.6899C204.99 76.6899 205.48 76.8899 205.74 77.2999C206 77.7099 206.12 78.2999 206.12 79.0799V82.1099C206.12 82.4499 206.13 82.7299 206.17 82.9399C206.2 83.1499 206.28 83.3399 206.4 83.4899C206.53 83.6499 206.72 83.7299 206.98 83.7499V83.8699H203.78V83.7499C204.16 83.7099 204.39 83.5599 204.49 83.2799C204.59 83.0099 204.64 82.6099 204.64 82.0999V79.6299C204.64 78.9999 204.56 78.5199 204.41 78.1999C204.26 77.8699 203.96 77.7099 203.53 77.7099C203.32 77.7099 203.11 77.7599 202.89 77.8499C202.67 77.9399 202.47 78.0699 202.27 78.2399C202.08 78.3999 201.91 78.5699 201.79 78.7599C201.6 79.0399 201.48 79.3199 201.43 79.5899C201.38 79.8599 201.36 80.2299 201.36 80.6999V82.0999C201.36 82.4399 201.37 82.7099 201.4 82.9199C201.43 83.1299 201.51 83.3199 201.63 83.4699C201.75 83.6299 201.94 83.7299 202.2 83.7599V83.8699H199.02V83.7499C199.4 83.7099 199.64 83.5499 199.73 83.2799C199.82 83.0099 199.87 82.6199 199.87 82.1099V78.7699H199.89Z" fill="white"/>
<path d="M212.85 78.5299C212.85 78.5199 212.9 78.3999 212.98 78.1799C213.06 77.9599 213.12 77.7999 213.15 77.6999C213.18 77.5999 213.19 77.4999 213.19 77.4199C213.19 77.1599 213.02 77.0199 212.69 76.9799V76.8499H214.89V76.9799C214.69 76.9999 214.52 77.0799 214.38 77.1999C214.25 77.3299 214.15 77.4599 214.08 77.6099C214.01 77.7599 213.92 77.9699 213.81 78.2599L211.37 84.6199C211.17 85.1299 210.97 85.5399 210.78 85.8699C210.59 86.1899 210.33 86.4499 210.01 86.6499C209.69 86.8499 209.29 86.9599 208.81 86.9599C208.56 86.9599 208.32 86.9199 208.08 86.8299C207.84 86.7399 207.62 86.6199 207.4 86.4499L208.29 84.5199L208.4 84.5899C208.36 84.7099 208.34 84.8399 208.34 84.9799C208.34 85.2599 208.41 85.4899 208.56 85.6799C208.71 85.8699 208.91 85.9699 209.17 85.9699C209.6 85.9699 209.93 85.7799 210.17 85.4099C210.4 85.0399 210.52 84.6299 210.52 84.1899C210.52 83.7199 210.32 82.9899 209.91 82.0199L208.37 78.1999C208.23 77.8399 208.09 77.5499 207.95 77.3299C207.8 77.1099 207.62 76.9999 207.38 76.9999V76.8699H210.27V76.9999C209.96 77.0399 209.8 77.1899 209.8 77.4399C209.8 77.5599 209.87 77.8099 210 78.1799L211.48 82.1299L212.85 78.5299Z" fill="white"/>
</g>
<defs>
<linearGradient id="paint0_linear_1180_2196" x1="29.1304" y1="26.2363" x2="29.1304" y2="-0.0439395" gradientUnits="userSpaceOnUse">
<stop stop-color="#6082C1"/>
<stop offset="0.1995" stop-color="#5D7EBC"/>
<stop offset="0.4062" stop-color="#5372AB"/>
<stop offset="0.6162" stop-color="#455F91"/>
<stop offset="0.8272" stop-color="#334872"/>
<stop offset="1" stop-color="#233557"/>
</linearGradient>
<linearGradient id="paint1_linear_1180_2196" x1="29.1304" y1="32.1298" x2="29.1304" y2="83.182" gradientUnits="userSpaceOnUse">
<stop stop-color="#931917"/>
<stop offset="1" stop-color="#18090B"/>
</linearGradient>
<linearGradient id="paint2_linear_1180_2196" x1="26.3976" y1="28.952" x2="-0.0294732" y2="28.952" gradientUnits="userSpaceOnUse">
<stop stop-color="#224887"/>
<stop offset="0.1251" stop-color="#224784"/>
<stop offset="0.2547" stop-color="#23447D"/>
<stop offset="0.3866" stop-color="#234072"/>
<stop offset="0.5199" stop-color="#233962"/>
<stop offset="0.6544" stop-color="#20304E"/>
<stop offset="0.7899" stop-color="#1B2436"/>
<stop offset="0.9237" stop-color="#0D1119"/>
<stop offset="1" stop-color="#020203"/>
</linearGradient>
<linearGradient id="paint3_linear_1180_2196" x1="31.861" y1="28.952" x2="58.2832" y2="28.952" gradientUnits="userSpaceOnUse">
<stop stop-color="#EA5D42"/>
<stop offset="0.1662" stop-color="#E65A40"/>
<stop offset="0.3384" stop-color="#D8533A"/>
<stop offset="0.5134" stop-color="#C24930"/>
<stop offset="0.6903" stop-color="#A53B25"/>
<stop offset="0.867" stop-color="#832C18"/>
<stop offset="1" stop-color="#67210E"/>
</linearGradient>
<clipPath id="clip0_1180_2196">
<rect width="216" height="87" fill="white" transform="translate(0.459961)"/>
</clipPath>
</defs>
</svg>
