<svg width="219" height="87" viewBox="0 0 219 87" fill="none" xmlns="http://www.w3.org/2000/svg">
<g clip-path="url(#clip0_1185_49)">
<path d="M29.5303 26.24L55.9503 -0.0400085H3.11035L29.5303 26.24Z" fill="url(#paint0_linear_1185_49)"/>
<path d="M3.11035 57.96L29.5303 31.67L55.9503 57.96H3.11035Z" fill="url(#paint1_linear_1185_49)"/>
<path d="M0.370117 2.67L26.8001 28.95L0.370117 55.23V2.67Z" fill="url(#paint2_linear_1185_49)"/>
<path d="M58.6803 2.67V55.23L32.2603 28.95L58.6803 2.67Z" fill="url(#paint3_linear_1185_49)"/>
<path d="M77.29 44.55C76.42 46.91 76 48.8 76 50.2C76 51.42 76.42 52.42 77.27 53.19C78.12 53.96 79.16 54.41 80.39 54.53V55.23H64.04V54.53C65.11 54.27 65.94 53.98 66.52 53.62C67.09 53.27 67.65 52.72 68.21 51.96C69.38 50.28 70.58 47.8 71.81 44.56L84.75 10.6C85.01 9.92 85.22 9.33 85.39 8.84C85.56 8.35 85.7 7.86 85.8 7.37C85.91 6.9 85.96 6.41 85.96 5.95C85.96 5.25 85.73 4.68 85.27 4.25C84.81 3.82 84.21 3.54 83.45 3.41V2.67H101.29V3.41C99.73 3.83 98.94 4.79 98.94 6.3C98.94 7 99.19 8.03 99.69 9.38L113.41 48.69C114.38 50.92 115.09 52.37 115.54 53.02C116 53.67 116.92 54.17 118.31 54.54V55.24H100.08V54.54C102.71 53.94 104.03 52.07 104.03 48.93C104.03 46.48 103.06 43.94 101.13 41.29C99.19 38.64 96.54 36.42 93.17 34.64C89.8 32.86 86.05 31.93 81.92 31.86L77.29 44.55ZM90.43 8.67L83.14 27.86C86.25 27.86 89.23 28.4 92.08 29.48C94.93 30.56 97.36 32.14 99.38 34.22L90.43 8.67Z" fill="white"/>
<path d="M145.31 44.86C145.31 46.99 145.4 48.69 145.58 49.95C145.77 51.22 146.23 52.28 146.98 53.13C147.72 53.99 148.91 54.46 150.53 54.53V55.23H131.2V54.53C132.82 54.46 134.01 54.02 134.75 53.23C135.5 52.44 135.96 51.44 136.14 50.25C136.32 49.04 136.41 47.41 136.41 45.33V6.79999C131.46 6.79999 127.44 7.63999 124.38 9.33999C121.31 11.03 119.03 13.8 117.52 17.65L116.77 17.42L120.73 1.64999C121.05 2.06999 121.55 2.33999 122.24 2.47999C122.94 2.60999 124.01 2.66999 125.48 2.66999H156.29C157.75 2.66999 158.83 2.60999 159.52 2.47999C160.22 2.33999 160.72 2.06999 161.03 1.64999L164.95 17.42L164.24 17.65C162.72 13.8 160.43 11.03 157.36 9.33999C154.29 7.64999 150.27 6.79999 145.3 6.79999V44.86H145.31Z" fill="white"/>
<path d="M171.07 13.16C171.07 10.19 170.78 7.90999 170.19 6.30999C169.6 4.70999 168.16 3.73999 165.86 3.39999V2.65999H185.11V3.39999C182.81 3.60999 181.37 4.46999 180.78 5.99999C180.19 7.51999 179.9 9.70999 179.9 12.57V22.32L186.8 16.82C188.16 15.76 189.64 14.52 191.25 13.11C192.86 11.71 194.31 10.28 195.62 8.82999C196.93 7.36999 197.58 6.19999 197.58 5.31999C197.58 4.63999 197.4 4.17999 197.05 3.92999C196.7 3.68999 196.16 3.50999 195.42 3.39999V2.65999H214.75V3.39999C212.87 3.49999 211.08 3.92999 209.38 4.66999C207.68 5.40999 206.2 6.23999 204.93 7.16999C203.66 8.08999 201.93 9.44999 199.73 11.24L193.73 16.2C196.48 18.77 198.91 21.47 201.04 24.29C203.17 27.11 205.08 30.1 206.78 33.24C208.48 36.38 210.03 39.72 211.45 43.26L212.98 46.93C213.69 48.69 214.24 50 214.63 50.8C215.02 51.62 215.6 52.41 216.36 53.18C217.12 53.95 218.03 54.4 219.11 54.52V55.22H201.43V54.52C203.31 54.21 204.25 53.18 204.25 51.41C204.25 49.51 203.63 47.02 202.39 43.96C201.15 40.89 199.81 38.12 198.37 35.65C195.65 31 192.04 26.22 187.55 21.3L179.9 27.35V44.78C179.9 47.75 180.19 50.06 180.78 51.7C181.37 53.36 182.81 54.3 185.11 54.53V55.23H165.86V54.53C167.48 54.27 168.66 53.72 169.41 52.86C170.15 52.01 170.62 51.01 170.8 49.88C170.98 48.75 171.07 47.23 171.07 45.33V13.16Z" fill="white"/>
<path d="M5.50986 77.47C5.23986 77.47 5.03986 77.51 4.91986 77.59C4.79986 77.67 4.71986 77.78 4.69986 77.92C4.66986 78.07 4.65986 78.3 4.65986 78.6V82.08C4.65986 82.59 4.70986 82.98 4.80986 83.28C4.90986 83.56 5.13986 83.7 5.50986 83.7V83.82H2.35986V83.7C2.61986 83.67 2.81986 83.58 2.94986 83.43C3.06986 83.29 3.14986 83.11 3.17986 82.9C3.20986 82.69 3.21986 82.42 3.21986 82.08V78.6C3.21986 78.27 3.19986 78.01 3.17986 77.81C3.14986 77.6 3.06986 77.42 2.93986 77.27C2.80986 77.11 2.61986 77.02 2.36986 77V76.87H10.3199V77C9.94986 77 9.71986 77.14 9.61986 77.42C9.51986 77.71 9.46986 78.09 9.46986 78.6V82.08C9.46986 82.59 9.51986 82.98 9.61986 83.28C9.71986 83.56 9.94986 83.7 10.3199 83.7V83.82H7.16986V83.7C7.53986 83.66 7.77986 83.51 7.87986 83.23C7.97986 82.96 8.02986 82.58 8.02986 82.08V78.6C8.02986 78.28 8.00986 78.05 7.98986 77.9C7.95986 77.76 7.88986 77.65 7.75986 77.58C7.63986 77.51 7.43986 77.47 7.17986 77.47H5.50986Z" fill="white"/>
<path d="M14.9099 76.87C15.7399 76.87 16.4599 77 17.0799 77.27C17.6999 77.53 18.1699 77.93 18.4999 78.46C18.8399 78.99 19.0099 79.66 19.0099 80.44C19.0099 81.17 18.8399 81.8 18.4999 82.32C18.1699 82.82 17.6899 83.21 17.0799 83.46C16.4799 83.71 15.7799 83.83 14.9999 83.83L13.4599 83.78V85.07C13.4599 85.41 13.4699 85.68 13.5099 85.88C13.5399 86.1 13.6199 86.28 13.7399 86.43C13.8599 86.59 14.0499 86.67 14.2999 86.69V86.82H11.1499V86.69C11.5199 86.66 11.7499 86.52 11.8499 86.25C11.9499 85.98 11.9999 85.6 11.9999 85.08V78.62C11.9999 78.1 11.9499 77.72 11.8499 77.45C11.7499 77.18 11.5199 77.03 11.1499 77.01V76.88H14.9099V76.87ZM13.4499 77.47V81.84C13.4499 82.19 13.4799 82.47 13.5499 82.66C13.6099 82.85 13.7399 82.99 13.9499 83.09C14.1599 83.2 14.4699 83.24 14.8899 83.24C15.4199 83.24 15.8899 83.12 16.2799 82.86C16.6799 82.6 16.9699 82.26 17.1799 81.81C17.3899 81.37 17.4899 80.89 17.4899 80.36C17.4899 79.46 17.2099 78.75 16.6499 78.24C16.0899 77.72 15.3499 77.46 14.4499 77.46H13.4499V77.47Z" fill="white"/>
<path d="M20.04 80.39C20.04 79.67 20.22 79.03 20.56 78.46C20.91 77.9 21.38 77.47 21.97 77.19C22.57 76.88 23.24 76.74 23.98 76.74C24.7 76.74 25.35 76.87 25.94 77.15C26.53 77.44 26.98 77.84 27.31 78.36C27.64 78.89 27.81 79.52 27.81 80.26C27.81 81 27.64 81.65 27.29 82.22C26.94 82.78 26.47 83.21 25.87 83.51C25.27 83.82 24.6 83.97 23.84 83.97C23.3 83.97 22.8 83.89 22.34 83.73C21.89 83.56 21.48 83.33 21.14 83.02C20.79 82.7 20.52 82.32 20.33 81.88C20.13 81.43 20.04 80.93 20.04 80.39ZM21.65 80.11C21.65 80.63 21.73 81.13 21.89 81.61C22.04 82.1 22.3 82.49 22.64 82.82C22.99 83.13 23.42 83.29 23.95 83.29C24.39 83.29 24.78 83.15 25.12 82.9C25.46 82.64 25.72 82.29 25.89 81.85C26.07 81.41 26.16 80.94 26.16 80.46C26.16 79.95 26.08 79.47 25.93 79.01C25.77 78.54 25.52 78.16 25.18 77.86C24.84 77.56 24.4 77.42 23.88 77.42C23.13 77.42 22.57 77.68 22.2 78.19C21.83 78.7 21.65 79.34 21.65 80.11Z" fill="white"/>
<path d="M33.6896 76.28C33.6896 75.73 33.6396 75.34 33.5396 75.07C33.4396 74.81 33.2096 74.66 32.8396 74.66V74.54L35.1296 74.18V76.87H36.3296C36.7996 76.87 37.2596 76.94 37.7096 77.11C38.1596 77.25 38.5496 77.47 38.8896 77.78C39.2296 78.08 39.5096 78.44 39.7096 78.89C39.9096 79.34 40.0196 79.85 40.0196 80.44C40.0196 81.17 39.8596 81.79 39.5396 82.31C39.2096 82.82 38.7796 83.2 38.2396 83.45C37.6896 83.7 37.0996 83.82 36.4396 83.82L35.1496 83.75V85.05C35.1496 85.39 35.1696 85.66 35.1996 85.86C35.2296 86.08 35.3096 86.26 35.4296 86.41C35.5596 86.57 35.7396 86.65 35.9996 86.67V86.8H32.8796V86.67C33.1296 86.65 33.3196 86.57 33.4496 86.41C33.5696 86.26 33.6496 86.08 33.6796 85.86C33.7096 85.66 33.7296 85.39 33.7296 85.05V83.75L32.4396 83.82C31.9696 83.82 31.5196 83.75 31.0896 83.62C30.6696 83.47 30.2896 83.27 29.9496 82.98C29.6096 82.69 29.3496 82.34 29.1496 81.91C28.9596 81.49 28.8696 80.99 28.8696 80.44C28.8696 79.68 29.0396 79.04 29.3896 78.49C29.7296 77.95 30.1796 77.55 30.7396 77.28C31.3096 77.01 31.8996 76.87 32.5396 76.87H33.7296V76.28H33.6896ZM33.7096 77.56H32.9896C32.4896 77.56 32.0396 77.67 31.6396 77.89C31.2396 78.1 30.9296 78.43 30.6996 78.85C30.4796 79.28 30.3596 79.78 30.3596 80.37C30.3596 81.17 30.5596 81.86 30.9496 82.41C31.3396 82.96 31.8696 83.24 32.5296 83.24C32.8796 83.24 33.1396 83.21 33.2996 83.15C33.4596 83.09 33.5596 82.96 33.6296 82.78C33.6896 82.59 33.7196 82.28 33.7196 81.85V77.56H33.7096ZM35.1296 81.85C35.1296 82.28 35.1596 82.59 35.2196 82.78C35.2796 82.97 35.3896 83.1 35.5396 83.15C35.6996 83.21 35.9396 83.24 36.2996 83.24C36.6396 83.24 36.9496 83.17 37.2196 83.02C37.4896 82.86 37.7096 82.66 37.8996 82.39C38.0896 82.12 38.2296 81.81 38.3196 81.46C38.4096 81.12 38.4596 80.75 38.4596 80.37C38.4596 79.93 38.3896 79.52 38.2696 79.17C38.1396 78.82 37.9596 78.53 37.7296 78.29C37.4896 78.05 37.2196 77.88 36.8996 77.75C36.5796 77.64 36.2296 77.57 35.8396 77.57H35.1196V81.85H35.1296Z" fill="white"/>
<path d="M42.64 80.65C42.72 81.14 42.9 81.58 43.17 81.98C43.44 82.38 43.8 82.7 44.22 82.95C44.64 83.18 45.1 83.3 45.58 83.3C45.85 83.3 46.15 83.23 46.48 83.09C46.81 82.94 47.08 82.79 47.29 82.6C47.55 82.38 47.8 82.03 48.05 81.53L48.18 81.59L47.44 83.92C47.34 83.85 47.23 83.83 47.12 83.83C47.06 83.83 46.97 83.83 46.85 83.85L45.36 83.99C44.9 83.99 44.41 83.92 43.9 83.77C43.39 83.63 42.92 83.41 42.48 83.12C42.05 82.82 41.7 82.44 41.43 81.98C41.16 81.51 41.02 80.98 41.02 80.38C41.02 79.69 41.18 79.07 41.51 78.52C41.83 77.96 42.28 77.53 42.85 77.22C43.42 76.91 44.05 76.76 44.74 76.76C45.52 76.76 46.22 76.96 46.84 77.4C47.45 77.84 47.86 78.44 48.05 79.17L42.64 80.65ZM46.4 78.97C46.25 78.53 46.02 78.17 45.72 77.87C45.42 77.56 45.05 77.41 44.62 77.41C44.18 77.41 43.8 77.53 43.49 77.78C43.18 78.02 42.94 78.35 42.79 78.76C42.63 79.17 42.56 79.6 42.56 80.06L46.4 78.97Z" fill="white"/>
<path d="M55.2 83.92C55.08 83.88 54.98 83.85 54.9 83.85L54.65 83.86L54.24 83.9L53.3 83.96C52.53 83.96 51.82 83.81 51.16 83.49C50.5 83.18 49.96 82.74 49.58 82.14C49.18 81.56 48.98 80.88 48.98 80.11C48.98 79.48 49.13 78.89 49.42 78.38C49.71 77.87 50.12 77.46 50.64 77.17C51.15 76.88 51.73 76.74 52.37 76.74L53.38 76.81L54.29 76.89C54.53 76.89 54.72 76.85 54.89 76.75L55.3 78.91L55.22 78.96C54.98 78.47 54.66 78.09 54.26 77.83C53.86 77.56 53.41 77.42 52.89 77.42C52.42 77.42 52 77.56 51.63 77.83C51.27 78.1 50.99 78.45 50.8 78.88C50.61 79.32 50.52 79.77 50.52 80.23C50.52 80.66 50.6 81.07 50.76 81.45C50.92 81.82 51.14 82.16 51.43 82.44C51.71 82.73 52.02 82.94 52.37 83.09C52.71 83.23 53.04 83.31 53.37 83.31C53.87 83.31 54.35 83.17 54.81 82.91C55.26 82.64 55.61 82.3 55.84 81.86L55.94 81.91L55.2 83.92Z" fill="white"/>
<path d="M62.8496 83.92C62.7396 83.88 62.6397 83.85 62.5497 83.85L62.2997 83.86L61.8896 83.9L60.9496 83.96C60.1796 83.96 59.4696 83.81 58.8096 83.49C58.1496 83.18 57.6197 82.74 57.2297 82.14C56.8297 81.56 56.6396 80.88 56.6396 80.11C56.6396 79.48 56.7897 78.89 57.0797 78.38C57.3697 77.87 57.7796 77.46 58.2896 77.17C58.8096 76.88 59.3796 76.74 60.0296 76.74L61.0396 76.81L61.9496 76.89C62.1796 76.89 62.3797 76.85 62.5497 76.75L62.9596 78.91L62.8796 78.96C62.6396 78.47 62.3296 78.09 61.9296 77.83C61.5396 77.56 61.0796 77.42 60.5596 77.42C60.0796 77.42 59.6697 77.56 59.2997 77.83C58.9397 78.1 58.6597 78.45 58.4697 78.88C58.2897 79.32 58.1897 79.77 58.1897 80.23C58.1897 80.66 58.2696 81.07 58.4296 81.45C58.5896 81.82 58.8196 82.16 59.0996 82.44C59.3796 82.73 59.6996 82.94 60.0296 83.09C60.3696 83.23 60.7097 83.31 61.0396 83.31C61.5396 83.31 62.0197 83.17 62.4797 82.91C62.9397 82.64 63.2797 82.3 63.5097 81.86L63.6096 81.91L62.8496 83.92Z" fill="white"/>
<path d="M69.8497 78.56L66.4997 81.47V82.09C66.4997 82.6 66.5497 82.99 66.6497 83.29C66.7497 83.57 66.9797 83.71 67.3497 83.71V83.83H64.1997V83.71C64.4597 83.68 64.6597 83.58 64.7797 83.43C64.8997 83.28 64.9797 83.1 65.0097 82.88C65.0397 82.67 65.0497 82.41 65.0497 82.09V78.61C65.0497 78.27 65.0297 78.01 65.0097 77.81C64.9797 77.6 64.8997 77.42 64.7697 77.26C64.6397 77.11 64.4497 77.02 64.1997 77V76.87H67.3497V77C66.9797 77 66.7497 77.14 66.6497 77.42C66.5497 77.71 66.4997 78.1 66.4997 78.61V80.68L69.8497 77.77C69.8397 77.65 69.7897 77.5 69.6797 77.32C69.5797 77.13 69.3497 77.03 68.9997 77V76.87H72.1497V77C71.7797 77 71.5497 77.14 71.4497 77.42C71.3497 77.71 71.2997 78.1 71.2997 78.61V82.09C71.2997 82.6 71.3497 82.99 71.4497 83.29C71.5497 83.57 71.7797 83.71 72.1497 83.71V83.83H68.9997V83.71C69.3697 83.67 69.6097 83.51 69.6997 83.23C69.7997 82.95 69.8497 82.58 69.8497 82.09V78.56Z" fill="white"/>
<path d="M73.0801 80.39C73.0801 79.67 73.2501 79.03 73.6001 78.46C73.9401 77.9 74.4201 77.47 75.0201 77.19C75.6201 76.88 76.2901 76.74 77.0301 76.74C77.7501 76.74 78.4001 76.87 78.9901 77.15C79.5801 77.44 80.0301 77.84 80.3601 78.36C80.6901 78.89 80.8501 79.52 80.8501 80.26C80.8501 81 80.6801 81.65 80.3201 82.22C79.9701 82.78 79.5001 83.21 78.9001 83.51C78.3001 83.82 77.6301 83.97 76.8801 83.97C76.3301 83.97 75.8301 83.89 75.3801 83.73C74.9301 83.56 74.5201 83.33 74.1801 83.02C73.8301 82.7 73.5601 82.32 73.3601 81.88C73.1801 81.43 73.0801 80.93 73.0801 80.39ZM74.6901 80.11C74.6901 80.63 74.7801 81.13 74.9301 81.61C75.0901 82.1 75.3501 82.49 75.6901 82.82C76.0301 83.13 76.4701 83.29 77.0001 83.29C77.4501 83.29 77.8401 83.15 78.1801 82.9C78.5101 82.64 78.7701 82.29 78.9501 81.85C79.1201 81.41 79.2101 80.94 79.2101 80.46C79.2101 79.95 79.1301 79.47 78.9801 79.01C78.8201 78.54 78.5701 78.16 78.2301 77.86C77.8801 77.56 77.4501 77.42 76.9301 77.42C76.1801 77.42 75.6101 77.68 75.2401 78.19C74.8801 78.7 74.6901 79.34 74.6901 80.11Z" fill="white"/>
<path d="M87.43 79.81H84.09V82.09C84.09 82.6 84.14 82.99 84.24 83.29C84.34 83.57 84.58 83.71 84.94 83.71V83.83H81.79V83.71C82.15 83.71 82.39 83.57 82.49 83.3C82.59 83.03 82.64 82.62 82.64 82.1V78.62C82.64 78.27 82.63 78 82.59 77.78C82.56 77.56 82.49 77.39 82.36 77.23C82.24 77.09 82.04 77.01 81.79 77.01V76.88H84.94V77C84.57 77 84.34 77.14 84.24 77.42C84.14 77.71 84.09 78.1 84.09 78.61V79.17H87.43V78.61C87.43 78.09 87.39 77.71 87.29 77.42C87.19 77.14 86.95 77 86.59 77V76.87H89.74V77C89.37 77 89.14 77.14 89.03 77.42C88.94 77.71 88.88 78.1 88.88 78.61V82.09C88.88 82.6 88.93 82.99 89.03 83.29C89.13 83.57 89.37 83.71 89.74 83.71V83.83H86.59V83.71C86.96 83.71 87.19 83.57 87.29 83.29C87.39 83 87.43 82.6 87.43 82.09V79.81Z" fill="white"/>
<path d="M96.1997 83.83C95.8997 83.44 95.7297 83.02 95.7297 82.56C95.4597 83.03 95.0697 83.39 94.5597 83.62C94.0497 83.85 93.4897 83.98 92.8997 83.98C92.2397 83.98 91.6997 83.83 91.2897 83.54C90.8697 83.24 90.6597 82.84 90.6597 82.33C90.6597 81.81 90.8297 81.37 91.1597 81C91.4997 80.64 91.9197 80.34 92.4297 80.12C92.9297 79.9 93.5197 79.71 94.1897 79.54C94.8597 79.38 95.3297 79.27 95.5997 79.2V78.93C95.5997 78.41 95.4997 78.05 95.2797 77.84C95.0697 77.64 94.6997 77.53 94.1697 77.53C93.4897 77.53 92.8797 77.69 92.3497 78.01C91.8297 78.34 91.4197 78.81 91.1397 79.44L91.3697 77.12C91.5397 77.25 91.6797 77.31 91.7997 77.31C91.8997 77.31 92.0597 77.27 92.2797 77.19C92.7497 77.02 93.1497 76.92 93.4997 76.84C93.8497 76.76 94.2597 76.73 94.7397 76.73C95.2097 76.73 95.5897 76.76 95.8897 76.84C96.1797 76.92 96.4297 77.07 96.6097 77.25C96.7997 77.44 96.9297 77.67 97.0097 77.97C97.0997 78.26 97.1397 78.63 97.1397 79.09V81.74C97.1397 82.12 97.1497 82.43 97.1897 82.66C97.2197 82.91 97.3197 83.12 97.4597 83.3C97.6097 83.49 97.8397 83.62 98.1397 83.69V83.81H96.1997V83.83ZM95.5997 79.77C94.7797 79.95 94.0197 80.22 93.3197 80.61C92.6197 80.99 92.2697 81.5 92.2697 82.13C92.2697 82.44 92.3897 82.69 92.6097 82.88C92.8397 83.08 93.1097 83.17 93.4197 83.17C94.2197 83.17 94.7797 82.89 95.0997 82.32C95.4297 81.75 95.5897 81.02 95.5897 80.12V79.77H95.5997Z" fill="white"/>
<path d="M102.38 77.39C102.11 77.39 101.86 77.45 101.63 77.55C101.4 77.64 101.19 77.81 101.01 77.99C100.82 78.2 100.63 78.46 100.47 78.79C100.3 79.12 100.15 79.48 100.02 79.87C99.8901 80.28 99.8 80.69 99.73 81.13C99.66 81.56 99.6301 82.02 99.6301 82.49C99.6301 82.77 99.73 83.04 99.95 83.29C100.16 83.53 100.47 83.67 100.88 83.71V83.83H98.54C98.54 83.34 98.57 82.78 98.65 82.16C98.72 81.55 98.88 80.85 99.15 80.07C99.42 79.3 99.82 78.54 100.36 77.83C100.48 77.65 100.52 77.5 100.52 77.37C100.52 77.13 100.39 77.01 100.13 76.99V76.87H105.62V76.99C105.26 76.99 105.02 77.13 104.92 77.41C104.82 77.7 104.77 78.09 104.77 78.61V82.09C104.77 82.6 104.82 82.99 104.92 83.29C105.02 83.57 105.26 83.71 105.62 83.71V83.83H102.46V83.71C102.84 83.71 103.08 83.57 103.18 83.3C103.28 83.03 103.33 82.62 103.33 82.1V78.62C103.33 78.3 103.32 78.07 103.28 77.92C103.25 77.76 103.17 77.64 103.04 77.55C102.9 77.44 102.68 77.39 102.38 77.39Z" fill="white"/>
<path d="M106.47 83.83V83.71C106.73 83.68 106.92 83.58 107.05 83.43C107.18 83.28 107.25 83.1 107.28 82.89C107.31 82.68 107.32 82.42 107.32 82.09V78.61C107.32 78.28 107.31 78.02 107.27 77.82C107.24 77.61 107.17 77.43 107.04 77.28C106.91 77.12 106.72 77.03 106.47 77.01V76.88H109.76V77C109.45 77.02 109.22 77.11 109.08 77.27C108.94 77.42 108.85 77.6 108.82 77.81C108.78 78.01 108.77 78.28 108.77 78.6V79.19C109.66 79.19 110.46 79.29 111.18 79.48C111.89 79.67 112.45 79.96 112.86 80.36C113.27 80.74 113.47 81.21 113.47 81.76C113.47 82.18 113.34 82.55 113.07 82.85C112.8 83.17 112.4 83.4 111.88 83.57C111.35 83.73 110.74 83.82 110.03 83.82H106.47V83.83ZM108.77 82.1C108.77 82.48 108.79 82.75 108.83 82.9C108.88 83.05 108.96 83.14 109.08 83.19C109.19 83.22 109.41 83.24 109.73 83.24C110.37 83.24 110.88 83.11 111.27 82.85C111.66 82.59 111.85 82.21 111.85 81.74C111.85 81.36 111.73 81 111.49 80.71C111.25 80.41 110.9 80.18 110.44 80.03C109.98 79.86 109.42 79.78 108.78 79.78V82.1H108.77Z" fill="white"/>
<path d="M119.77 79.81H116.42V82.09C116.42 82.6 116.47 82.99 116.57 83.29C116.67 83.57 116.9 83.71 117.27 83.71V83.83H114.12V83.71C114.49 83.71 114.72 83.57 114.82 83.3C114.92 83.03 114.97 82.62 114.97 82.1V78.62C114.97 78.27 114.95 78 114.93 77.78C114.9 77.56 114.82 77.39 114.7 77.23C114.58 77.09 114.38 77.01 114.13 77.01V76.88H117.28V77C116.91 77 116.68 77.14 116.58 77.42C116.48 77.71 116.43 78.1 116.43 78.61V79.17H119.78V78.61C119.78 78.09 119.73 77.71 119.63 77.42C119.53 77.14 119.3 77 118.93 77V76.87H122.08V77C121.71 77 121.48 77.14 121.38 77.42C121.28 77.71 121.23 78.1 121.23 78.61V82.09C121.23 82.6 121.28 82.99 121.38 83.29C121.48 83.57 121.71 83.71 122.08 83.71V83.83H118.93V83.71C119.3 83.71 119.53 83.57 119.63 83.29C119.73 83 119.78 82.6 119.78 82.09V79.81H119.77Z" fill="white"/>
<path d="M128.53 83.83C128.23 83.44 128.07 83.02 128.05 82.56C127.79 83.03 127.4 83.39 126.88 83.62C126.37 83.85 125.82 83.98 125.23 83.98C124.57 83.98 124.03 83.83 123.61 83.54C123.19 83.24 122.99 82.84 122.99 82.33C122.99 81.81 123.16 81.37 123.5 81C123.84 80.64 124.26 80.34 124.76 80.12C125.27 79.9 125.86 79.71 126.53 79.54C127.2 79.38 127.67 79.27 127.94 79.2V78.93C127.94 78.41 127.83 78.05 127.62 77.84C127.41 77.64 127.04 77.53 126.51 77.53C125.82 77.53 125.22 77.69 124.7 78.01C124.17 78.34 123.77 78.81 123.49 79.44L123.72 77.12C123.89 77.25 124.03 77.31 124.14 77.31C124.24 77.31 124.4 77.27 124.62 77.19C125.08 77.02 125.49 76.92 125.84 76.84C126.19 76.76 126.61 76.73 127.08 76.73C127.55 76.73 127.93 76.76 128.23 76.84C128.53 76.92 128.77 77.07 128.96 77.25C129.15 77.44 129.28 77.67 129.36 77.97C129.44 78.26 129.48 78.63 129.48 79.09V81.74C129.48 82.12 129.5 82.43 129.53 82.66C129.56 82.91 129.65 83.12 129.81 83.3C129.96 83.49 130.18 83.62 130.49 83.69V83.81H128.53V83.83ZM127.94 79.77C127.11 79.95 126.35 80.22 125.65 80.61C124.96 80.99 124.61 81.5 124.61 82.13C124.61 82.44 124.72 82.69 124.95 82.88C125.17 83.08 125.45 83.17 125.76 83.17C126.55 83.17 127.11 82.89 127.44 82.32C127.77 81.75 127.94 81.02 127.94 80.12V79.77Z" fill="white"/>
<path d="M133.33 79.86C132.05 79.41 131.42 78.84 131.42 78.17C131.42 77.78 131.56 77.48 131.84 77.29C132.12 77.11 132.45 76.99 132.83 76.93C133.2 76.89 133.67 76.86 134.21 76.86H138.24V77C137.87 77 137.64 77.14 137.54 77.43C137.44 77.72 137.39 78.11 137.39 78.6V82.08C137.39 82.58 137.44 82.97 137.54 83.26C137.64 83.55 137.87 83.7 138.24 83.7V83.82H135.08L135.09 83.66C135.34 83.66 135.52 83.59 135.64 83.45C135.76 83.3 135.85 83.11 135.89 82.89C135.92 82.66 135.94 82.4 135.94 82.09V80.45C135.89 80.44 135.72 80.39 135.41 80.34C135.11 80.28 134.89 80.24 134.76 80.2C134.54 80.45 134.33 80.72 134.12 80.98C133.92 81.26 133.74 81.53 133.57 81.81C133.4 82.08 133.26 82.35 133.13 82.6C133.04 82.79 132.99 82.97 132.99 83.14C132.99 83.44 133.17 83.63 133.52 83.69V83.81H130.49V83.69C130.77 83.6 131.18 83.07 131.72 82.09C132.14 81.4 132.67 80.65 133.33 79.86ZM135.95 79.82V78.47C135.95 78.18 135.94 77.99 135.92 77.87C135.9 77.74 135.85 77.66 135.76 77.6C135.67 77.54 135.54 77.5 135.35 77.47C135.16 77.46 134.84 77.46 134.38 77.46C133.47 77.46 133.01 77.73 133.01 78.3C133.01 78.6 133.15 78.85 133.43 79.07C133.7 79.29 134.05 79.45 134.44 79.54L135.95 79.82Z" fill="white"/>
<path d="M147.49 77.39C147.22 77.39 146.98 77.45 146.74 77.55C146.51 77.64 146.3 77.81 146.12 77.99C145.93 78.2 145.74 78.46 145.57 78.79C145.4 79.12 145.25 79.48 145.12 79.87C144.99 80.28 144.89 80.69 144.83 81.13C144.76 81.56 144.73 82.02 144.73 82.49C144.73 82.77 144.83 83.04 145.05 83.29C145.26 83.53 145.58 83.67 145.99 83.71V83.83H143.65C143.65 83.34 143.68 82.78 143.75 82.16C143.82 81.55 143.99 80.85 144.26 80.07C144.53 79.3 144.93 78.54 145.47 77.83C145.58 77.65 145.64 77.5 145.64 77.37C145.64 77.13 145.51 77.01 145.25 76.99V76.87H150.74V76.99C150.37 76.99 150.14 77.13 150.04 77.41C149.94 77.7 149.9 78.09 149.9 78.61V82.09C149.9 82.6 149.95 82.99 150.04 83.29C150.14 83.57 150.37 83.71 150.74 83.71V83.83H147.58V83.71C147.96 83.71 148.2 83.57 148.3 83.3C148.4 83.03 148.44 82.62 148.44 82.1V78.62C148.44 78.3 148.43 78.07 148.39 77.92C148.36 77.76 148.28 77.64 148.15 77.55C148 77.44 147.79 77.39 147.49 77.39Z" fill="white"/>
<path d="M151.66 80.39C151.66 79.67 151.83 79.03 152.18 78.46C152.53 77.9 152.99 77.47 153.6 77.19C154.2 76.88 154.86 76.74 155.6 76.74C156.32 76.74 156.97 76.87 157.56 77.15C158.14 77.44 158.6 77.84 158.93 78.36C159.26 78.89 159.43 79.52 159.43 80.26C159.43 81 159.25 81.65 158.9 82.22C158.55 82.78 158.08 83.21 157.48 83.51C156.88 83.82 156.21 83.97 155.46 83.97C154.91 83.97 154.41 83.89 153.96 83.73C153.51 83.56 153.11 83.33 152.76 83.02C152.41 82.7 152.14 82.32 151.95 81.88C151.75 81.43 151.66 80.93 151.66 80.39ZM153.27 80.11C153.27 80.63 153.35 81.13 153.51 81.61C153.67 82.1 153.92 82.49 154.27 82.82C154.61 83.13 155.05 83.29 155.58 83.29C156.02 83.29 156.41 83.15 156.76 82.9C157.1 82.64 157.35 82.29 157.53 81.85C157.71 81.41 157.79 80.94 157.79 80.46C157.79 79.95 157.72 79.47 157.56 79.01C157.4 78.54 157.15 78.16 156.81 77.86C156.46 77.56 156.03 77.42 155.51 77.42C154.76 77.42 154.19 77.68 153.82 78.19C153.46 78.7 153.27 79.34 153.27 80.11Z" fill="white"/>
<path d="M165.09 76.87C165.35 76.87 165.54 76.86 165.66 76.84C165.78 76.81 165.87 76.76 165.93 76.69L166.63 79.49L166.5 79.52C166.3 79.03 166.1 78.64 165.88 78.36C165.67 78.08 165.38 77.88 165.03 77.73C164.68 77.59 164.22 77.53 163.66 77.53C163.34 77.53 163.11 77.56 162.98 77.64C162.84 77.72 162.76 77.82 162.72 77.95C162.69 78.08 162.67 78.31 162.67 78.61V82.09C162.67 82.6 162.72 82.99 162.82 83.28C162.92 83.56 163.16 83.7 163.52 83.7V83.82H160.37V83.7C160.64 83.67 160.83 83.58 160.95 83.43C161.08 83.29 161.15 83.11 161.18 82.9C161.21 82.69 161.22 82.42 161.22 82.09V78.6C161.22 78.27 161.21 78.01 161.17 77.81C161.14 77.61 161.06 77.43 160.93 77.27C160.8 77.11 160.62 77.02 160.36 77V76.87H165.09Z" fill="white"/>
<path d="M172.53 78.56L169.19 81.47V82.09C169.19 82.6 169.24 82.99 169.34 83.29C169.44 83.57 169.68 83.71 170.04 83.71V83.83H166.89V83.71C167.15 83.68 167.35 83.58 167.47 83.43C167.6 83.28 167.67 83.1 167.7 82.88C167.73 82.67 167.74 82.41 167.74 82.09V78.61C167.74 78.27 167.73 78.01 167.69 77.81C167.66 77.6 167.58 77.42 167.46 77.26C167.33 77.11 167.14 77.02 166.89 77V76.87H170.04V77C169.67 77 169.44 77.14 169.34 77.42C169.24 77.71 169.19 78.1 169.19 78.61V80.68L172.53 77.77C172.52 77.65 172.47 77.5 172.36 77.32C172.25 77.13 172.03 77.03 171.67 77V76.87H174.82V77C174.45 77 174.21 77.14 174.12 77.42C174.02 77.71 173.97 78.1 173.97 78.61V82.09C173.97 82.6 174.02 82.99 174.12 83.29C174.22 83.57 174.45 83.71 174.82 83.71V83.83H171.67V83.71C172.04 83.67 172.28 83.51 172.38 83.23C172.47 82.95 172.52 82.58 172.52 82.09V78.56H172.53Z" fill="white"/>
<path d="M182 83.92C181.88 83.88 181.79 83.85 181.7 83.85L181.44 83.86L181.03 83.9L180.09 83.96C179.32 83.96 178.61 83.81 177.95 83.49C177.29 83.18 176.76 82.74 176.37 82.14C175.98 81.56 175.77 80.88 175.77 80.11C175.77 79.48 175.92 78.89 176.21 78.38C176.51 77.87 176.91 77.46 177.42 77.17C177.94 76.88 178.51 76.74 179.15 76.74L180.16 76.81L181.07 76.89C181.3 76.89 181.5 76.85 181.66 76.75L182.07 78.91L181.99 78.96C181.75 78.47 181.43 78.09 181.04 77.83C180.64 77.56 180.19 77.42 179.67 77.42C179.19 77.42 178.77 77.56 178.41 77.83C178.05 78.1 177.77 78.45 177.58 78.88C177.39 79.32 177.3 79.77 177.3 80.23C177.3 80.66 177.38 81.07 177.54 81.45C177.7 81.82 177.93 82.16 178.21 82.44C178.5 82.73 178.81 82.94 179.15 83.09C179.49 83.23 179.83 83.31 180.16 83.31C180.66 83.31 181.14 83.17 181.6 82.91C182.06 82.64 182.39 82.3 182.63 81.86L182.73 81.91L182 83.92Z" fill="white"/>
<path d="M187.18 82.09C187.18 82.59 187.23 82.98 187.34 83.26C187.44 83.54 187.7 83.69 188.1 83.7V83.82H184.8V83.7C185.21 83.68 185.47 83.54 185.57 83.26C185.68 82.99 185.73 82.6 185.73 82.09V77.53C185.16 77.53 184.7 77.6 184.35 77.73C184 77.87 183.72 78.08 183.5 78.36C183.29 78.64 183.08 79.03 182.88 79.52L182.75 79.49L183.45 76.69C183.51 76.76 183.6 76.82 183.72 76.84C183.84 76.85 184.03 76.87 184.29 76.87H188.63C188.89 76.87 189.08 76.86 189.2 76.84C189.32 76.81 189.41 76.76 189.47 76.69L190.17 79.49L190.04 79.52C189.84 79.03 189.64 78.64 189.42 78.36C189.2 78.08 188.92 77.88 188.57 77.73C188.22 77.59 187.76 77.53 187.19 77.53V82.09H187.18Z" fill="white"/>
<path d="M196.08 78.56L192.73 81.47V82.09C192.73 82.6 192.78 82.99 192.88 83.29C192.98 83.57 193.21 83.71 193.58 83.71V83.83H190.43V83.71C190.69 83.68 190.89 83.58 191.01 83.43C191.13 83.28 191.21 83.1 191.24 82.88C191.27 82.67 191.28 82.41 191.28 82.09V78.61C191.28 78.27 191.26 78.01 191.23 77.81C191.2 77.6 191.12 77.42 191 77.26C190.87 77.11 190.68 77.02 190.43 77V76.87H193.58V77C193.21 77 192.98 77.14 192.88 77.42C192.78 77.71 192.73 78.1 192.73 78.61V80.68L196.08 77.77C196.08 77.65 196.02 77.5 195.91 77.32C195.81 77.13 195.58 77.03 195.23 77V76.87H198.38V77C198.01 77 197.78 77.14 197.68 77.42C197.58 77.71 197.53 78.1 197.53 78.61V82.09C197.53 82.6 197.58 82.99 197.68 83.29C197.78 83.57 198.01 83.71 198.38 83.71V83.83H195.23V83.71C195.6 83.67 195.84 83.51 195.94 83.23C196.04 82.95 196.09 82.58 196.09 82.09V78.56H196.08Z" fill="white"/>
<path d="M201.63 79.93L203.5 78.13C203.85 77.81 204.03 77.53 204.03 77.31C204.03 77.14 203.89 77.04 203.63 77.01V76.88H206.53V77C206.28 77.03 206.05 77.11 205.84 77.2C205.63 77.29 205.42 77.41 205.22 77.56C205.03 77.7 204.84 77.83 204.68 77.98C204.52 78.11 204.32 78.29 204.08 78.51L203.72 78.81C204.11 79.18 204.46 79.59 204.79 80.02C205.11 80.45 205.39 80.87 205.64 81.28C205.88 81.7 206.18 82.23 206.52 82.87C206.56 82.94 206.61 83.03 206.67 83.15C206.73 83.27 206.79 83.36 206.85 83.43C206.91 83.5 206.98 83.56 207.06 83.61C207.14 83.66 207.25 83.7 207.37 83.72V83.84H204.35V83.72C204.48 83.72 204.59 83.67 204.68 83.59C204.78 83.51 204.83 83.4 204.83 83.27C204.83 83 204.7 82.62 204.45 82.13C204.2 81.63 203.9 81.15 203.55 80.67C203.2 80.21 202.91 79.88 202.66 79.69L201.64 80.6V82.09C201.64 82.47 201.65 82.77 201.68 82.98C201.71 83.2 201.78 83.38 201.91 83.51C202.03 83.65 202.23 83.72 202.49 83.72V83.84H199.35V83.72C199.72 83.67 199.96 83.52 200.06 83.25C200.16 82.98 200.21 82.6 200.21 82.1V78.62C200.21 78.28 200.19 78.02 200.17 77.82C200.14 77.61 200.06 77.43 199.93 77.27C199.8 77.12 199.61 77.03 199.36 77.01V76.88H202.5V77C202.13 77 201.9 77.14 201.8 77.42C201.7 77.71 201.65 78.1 201.65 78.61V79.93H201.63Z" fill="white"/>
<path d="M213.35 83.83C213.04 83.44 212.89 83.02 212.87 82.56C212.61 83.03 212.22 83.39 211.7 83.62C211.18 83.85 210.63 83.98 210.04 83.98C209.38 83.98 208.84 83.83 208.43 83.54C208.01 83.24 207.8 82.84 207.8 82.33C207.8 81.81 207.97 81.37 208.31 81C208.65 80.64 209.07 80.34 209.57 80.12C210.07 79.9 210.66 79.71 211.33 79.54C212 79.38 212.47 79.27 212.75 79.2V78.93C212.75 78.41 212.64 78.05 212.43 77.84C212.22 77.64 211.85 77.53 211.32 77.53C210.64 77.53 210.03 77.69 209.51 78.01C208.98 78.34 208.58 78.81 208.3 79.44L208.53 77.12C208.7 77.25 208.85 77.31 208.96 77.31C209.06 77.31 209.22 77.27 209.44 77.19C209.9 77.02 210.31 76.92 210.66 76.84C211.01 76.76 211.42 76.73 211.9 76.73C212.37 76.73 212.75 76.76 213.05 76.84C213.35 76.92 213.59 77.07 213.77 77.25C213.96 77.44 214.09 77.67 214.17 77.97C214.25 78.26 214.29 78.63 214.29 79.09V81.74C214.29 82.12 214.31 82.43 214.34 82.66C214.37 82.91 214.47 83.12 214.61 83.3C214.76 83.49 214.99 83.62 215.29 83.69V83.81H213.35V83.83ZM212.76 79.77C211.93 79.95 211.17 80.22 210.47 80.61C209.77 80.99 209.42 81.5 209.42 82.13C209.42 82.44 209.53 82.69 209.76 82.88C209.99 83.08 210.26 83.17 210.57 83.17C211.37 83.17 211.93 82.89 212.26 82.32C212.59 81.75 212.76 81.02 212.76 80.12V79.77Z" fill="white"/>
</g>
<defs>
<linearGradient id="paint0_linear_1185_49" x1="29.5307" y1="26.2363" x2="29.5307" y2="-0.0439089" gradientUnits="userSpaceOnUse">
<stop stop-color="#6082C1"/>
<stop offset="0.1995" stop-color="#5D7EBC"/>
<stop offset="0.4062" stop-color="#5372AB"/>
<stop offset="0.6162" stop-color="#455F91"/>
<stop offset="0.8272" stop-color="#334872"/>
<stop offset="1" stop-color="#233557"/>
</linearGradient>
<linearGradient id="paint1_linear_1185_49" x1="29.5307" y1="32.1299" x2="29.5307" y2="83.1821" gradientUnits="userSpaceOnUse">
<stop stop-color="#931917"/>
<stop offset="1" stop-color="#18090B"/>
</linearGradient>
<linearGradient id="paint2_linear_1185_49" x1="26.798" y1="28.9521" x2="0.370917" y2="28.9521" gradientUnits="userSpaceOnUse">
<stop stop-color="#224887"/>
<stop offset="0.1251" stop-color="#224784"/>
<stop offset="0.2547" stop-color="#23447D"/>
<stop offset="0.3866" stop-color="#234072"/>
<stop offset="0.5199" stop-color="#233962"/>
<stop offset="0.6544" stop-color="#20304E"/>
<stop offset="0.7899" stop-color="#1B2436"/>
<stop offset="0.9237" stop-color="#0D1119"/>
<stop offset="1" stop-color="#020203"/>
</linearGradient>
<linearGradient id="paint3_linear_1185_49" x1="32.2614" y1="28.9521" x2="58.6836" y2="28.9521" gradientUnits="userSpaceOnUse">
<stop stop-color="#EA5D42"/>
<stop offset="0.1662" stop-color="#E65A40"/>
<stop offset="0.3384" stop-color="#D8533A"/>
<stop offset="0.5134" stop-color="#C24930"/>
<stop offset="0.6903" stop-color="#A53B25"/>
<stop offset="0.867" stop-color="#832C18"/>
<stop offset="1" stop-color="#67210E"/>
</linearGradient>
<clipPath id="clip0_1185_49">
<rect width="219" height="87" fill="white"/>
</clipPath>
</defs>
</svg>
