<svg width="168" height="58" viewBox="0 0 168 58" fill="none" xmlns="http://www.w3.org/2000/svg">
<g clip-path="url(#clip0_1427_531)">
<mask id="mask0_1427_531" style="mask-type:luminance" maskUnits="userSpaceOnUse" x="-59" y="0" width="219" height="87">
<path d="M160 0H-59V87H160V0Z" fill="white"/>
</mask>
<g mask="url(#mask0_1427_531)">
<path d="M18.29 44.55C17.42 46.91 17 48.8 17 50.2C17 51.42 17.42 52.42 18.27 53.19C19.12 53.96 20.16 54.41 21.39 54.53V55.23H5.04004V54.53C6.11004 54.27 6.94003 53.98 7.52003 53.62C8.09003 53.27 8.65004 52.72 9.21004 51.96C10.38 50.28 11.58 47.8 12.81 44.56L25.75 10.6C26.01 9.92004 26.22 9.33004 26.39 8.84004C26.56 8.35004 26.7 7.86004 26.8 7.37004C26.91 6.90004 26.96 6.41004 26.96 5.95004C26.96 5.25004 26.73 4.68004 26.27 4.25004C25.81 3.82004 25.21 3.54004 24.45 3.41004V2.67004H42.29V3.41004C40.73 3.83004 39.94 4.79004 39.94 6.30004C39.94 7.00004 40.19 8.03004 40.69 9.38004L54.41 48.69C55.38 50.92 56.09 52.37 56.54 53.02C57 53.67 57.92 54.17 59.31 54.54V55.24H41.08V54.54C43.71 53.94 45.03 52.07 45.03 48.93C45.03 46.48 44.06 43.94 42.13 41.29C40.19 38.64 37.54 36.42 34.17 34.64C30.8 32.86 27.05 31.93 22.92 31.86L18.29 44.55ZM31.43 8.67004L24.14 27.86C27.25 27.86 30.23 28.4 33.08 29.48C35.93 30.56 38.36 32.14 40.38 34.22L31.43 8.67004Z" fill="white"/>
<path d="M86.31 44.86C86.31 46.99 86.4 48.69 86.58 49.95C86.77 51.22 87.23 52.28 87.98 53.13C88.72 53.99 89.91 54.46 91.53 54.53V55.23H72.2V54.53C73.82 54.46 75.01 54.02 75.75 53.23C76.5 52.44 76.96 51.44 77.14 50.25C77.32 49.04 77.41 47.41 77.41 45.33V6.80002C72.46 6.80002 68.44 7.64002 65.38 9.34002C62.31 11.03 60.03 13.8 58.52 17.65L57.77 17.42L61.73 1.65002C62.05 2.07002 62.55 2.34002 63.24 2.48002C63.94 2.61002 65.01 2.67002 66.48 2.67002H97.29C98.75 2.67002 99.83 2.61002 100.52 2.48002C101.22 2.34002 101.72 2.07002 102.03 1.65002L105.95 17.42L105.24 17.65C103.72 13.8 101.43 11.03 98.36 9.34002C95.29 7.65002 91.27 6.80002 86.3 6.80002V44.86H86.31Z" fill="white"/>
<path d="M112.07 13.16C112.07 10.19 111.78 7.91003 111.19 6.31003C110.6 4.71003 109.16 3.74003 106.86 3.40003V2.66003H126.11V3.40003C123.81 3.61003 122.37 4.47003 121.78 6.00003C121.19 7.52003 120.9 9.71003 120.9 12.57V22.32L127.8 16.82C129.16 15.76 130.64 14.52 132.25 13.11C133.86 11.71 135.31 10.28 136.62 8.83003C137.93 7.37003 138.58 6.20003 138.58 5.32003C138.58 4.64003 138.4 4.18003 138.05 3.93003C137.7 3.69003 137.16 3.51003 136.42 3.40003V2.66003H155.75V3.40003C153.87 3.50003 152.08 3.93003 150.38 4.67003C148.68 5.41003 147.2 6.24003 145.93 7.17003C144.66 8.09003 142.93 9.45003 140.73 11.24L134.73 16.2C137.48 18.77 139.91 21.47 142.04 24.29C144.17 27.11 146.08 30.1 147.78 33.24C149.48 36.38 151.03 39.72 152.45 43.26L153.98 46.93C154.69 48.69 155.24 50 155.63 50.8C156.02 51.62 156.6 52.41 157.36 53.18C158.12 53.95 159.03 54.4 160.11 54.52V55.22H142.43V54.52C144.31 54.21 145.25 53.18 145.25 51.41C145.25 49.51 144.63 47.02 143.39 43.96C142.15 40.89 140.81 38.12 139.37 35.65C136.65 31 133.04 26.22 128.55 21.3L120.9 27.35V44.78C120.9 47.75 121.19 50.06 121.78 51.7C122.37 53.36 123.81 54.3 126.11 54.53V55.23H106.86V54.53C108.48 54.27 109.66 53.72 110.41 52.86C111.15 52.01 111.62 51.01 111.8 49.88C111.98 48.75 112.07 47.23 112.07 45.33V13.16Z" fill="white"/>
</g>
</g>
<defs>
<clipPath id="clip0_1427_531">
<rect width="168" height="58" fill="white"/>
</clipPath>
</defs>
</svg>
