<svg width="308" height="18" viewBox="0 0 308 18" fill="none" xmlns="http://www.w3.org/2000/svg">
<g clip-path="url(#clip0_1493_875)">
<path d="M7.74947 4.63609C7.36974 4.63609 7.08846 4.69217 6.9197 4.80435C6.75093 4.91654 6.63842 5.07079 6.6103 5.26712C6.5681 5.47746 6.55404 5.79999 6.55404 6.22068V11.1007C6.55404 11.8159 6.62436 12.3627 6.765 12.7834C6.90564 13.1761 7.2291 13.3724 7.74947 13.3724V13.5407H3.31934V13.3724C3.685 13.3303 3.96628 13.2041 4.14911 12.9938C4.31787 12.7975 4.43039 12.5451 4.47258 12.2506C4.51477 11.9561 4.52883 11.5775 4.52883 11.1007V6.22068C4.52883 5.75792 4.50071 5.39332 4.47258 5.11286C4.43039 4.81838 4.31787 4.56596 4.13504 4.35562C3.95221 4.13125 3.685 4.00505 3.3334 3.977V3.79471H14.5142V3.977C13.9939 3.977 13.6704 4.17332 13.5297 4.56597C13.3891 4.97263 13.3188 5.50551 13.3188 6.22068V11.1007C13.3188 11.8159 13.3891 12.3627 13.5297 12.7834C13.6704 13.1761 13.9939 13.3724 14.5142 13.3724V13.5407H10.0841V13.3724C10.6044 13.3163 10.942 13.106 11.0826 12.7133C11.2233 12.3347 11.2936 11.8018 11.2936 11.1007V6.22068C11.2936 5.77194 11.2655 5.44942 11.2373 5.23907C11.1951 5.04275 11.0967 4.8885 10.9139 4.79034C10.7451 4.69218 10.4638 4.63609 10.0981 4.63609H7.74947Z" fill="white"/>
<path d="M20.9697 3.79471C22.137 3.79471 23.1496 3.977 24.0215 4.35562C24.8935 4.72022 25.5545 5.28114 26.0186 6.02436C26.4968 6.76758 26.7359 7.70712 26.7359 8.80091C26.7359 9.82459 26.4968 10.708 26.0186 11.4372C25.5545 12.1384 24.8794 12.6853 24.0215 13.0359C23.1777 13.3864 22.1932 13.5547 21.0963 13.5547L18.9304 13.4846V15.2936C18.9304 15.7703 18.9445 16.149 19.0007 16.4294C19.0429 16.7379 19.1554 16.9903 19.3242 17.2007C19.493 17.425 19.7602 17.5372 20.1118 17.5653V17.7476H15.6816V17.5653C16.202 17.5232 16.5255 17.3269 16.6661 16.9483C16.8068 16.5696 16.8771 16.0368 16.8771 15.3076V6.24873C16.8771 5.51954 16.8068 4.98665 16.6661 4.60803C16.5255 4.22941 16.202 4.01908 15.6816 3.99103V3.80872H20.9697V3.79471ZM18.9163 4.63609V10.7641C18.9163 11.2549 18.9585 11.6476 19.057 11.914C19.1414 12.1805 19.3242 12.3768 19.6195 12.517C19.9149 12.6713 20.3509 12.7273 20.9415 12.7273C21.6869 12.7273 22.3479 12.5591 22.8964 12.1945C23.459 11.8299 23.8668 11.3531 24.1622 10.7221C24.4575 10.105 24.5982 9.43195 24.5982 8.68873C24.5982 7.42666 24.2044 6.43102 23.4168 5.71585C22.6292 4.98666 21.5885 4.62206 20.3227 4.62206H18.9163V4.63609Z" fill="white"/>
<path d="M28.1846 8.73079C28.1846 7.72113 28.4377 6.82366 28.9159 6.02435C29.4081 5.23906 30.0691 4.63608 30.8989 4.24344C31.7427 3.80872 32.685 3.6124 33.7258 3.6124C34.7384 3.6124 35.6525 3.7947 36.4823 4.18734C37.3121 4.59401 37.9449 5.15493 38.409 5.88412C38.8732 6.62734 39.1122 7.51079 39.1122 8.54849C39.1122 9.5862 38.8732 10.4977 38.3809 11.297C37.8887 12.0823 37.2277 12.6853 36.3838 13.106C35.54 13.5407 34.5977 13.751 33.5289 13.751C32.7694 13.751 32.0662 13.6388 31.4193 13.4145C30.7864 13.1761 30.2098 12.8535 29.7316 12.4188C29.2394 11.9701 28.8596 11.4372 28.5924 10.8202C28.3111 10.1892 28.1846 9.48803 28.1846 8.73079ZM30.4489 8.33815C30.4489 9.06734 30.5614 9.76849 30.7864 10.4416C30.9974 11.1287 31.363 11.6756 31.8412 12.1384C32.3334 12.5731 32.9382 12.7975 33.6836 12.7975C34.3024 12.7975 34.8509 12.6011 35.329 12.2506C35.8072 11.886 36.1729 11.3952 36.412 10.7781C36.6651 10.1611 36.7917 9.50205 36.7917 8.82895C36.7917 8.11378 36.6792 7.44068 36.4682 6.79562C36.2432 6.13654 35.8916 5.60366 35.4134 5.18297C34.9353 4.76229 34.3164 4.56596 33.5851 4.56596C32.5303 4.56596 31.7427 4.93056 31.2224 5.64574C30.702 6.36091 30.4489 7.25838 30.4489 8.33815Z" fill="white"/>
<path d="M47.3818 2.96735C47.3818 2.19608 47.3115 1.64919 47.1709 1.27057C47.0302 0.905969 46.7068 0.69563 46.1864 0.69563V0.52735L49.407 0.022522V3.79471H51.0947C51.7557 3.79471 52.4027 3.89287 53.0355 4.13126C53.6684 4.32758 54.2169 4.63608 54.6951 5.0708C55.1733 5.49149 55.567 5.99631 55.8483 6.62735C56.1296 7.25838 56.2843 7.97356 56.2843 8.80092C56.2843 9.82459 56.0593 10.694 55.6092 11.4232C55.1451 12.1384 54.5404 12.6713 53.7809 13.0218C53.0074 13.3724 52.1776 13.5407 51.2494 13.5407L49.4352 13.4425V15.2655C49.4352 15.7423 49.4633 16.1209 49.5055 16.4014C49.5477 16.7099 49.6602 16.9623 49.829 17.1726C50.0118 17.397 50.2649 17.5092 50.6306 17.5372V17.7195H46.2427V17.5372C46.5943 17.5092 46.8615 17.397 47.0443 17.1726C47.2131 16.9623 47.3256 16.7099 47.3678 16.4014C47.41 16.1209 47.4381 15.7423 47.4381 15.2655V13.4425L45.6239 13.5407C44.9628 13.5407 44.33 13.4425 43.7252 13.2602C43.1345 13.0499 42.6001 12.7694 42.1219 12.3628C41.6438 11.9561 41.2781 11.4653 40.9968 10.8623C40.7296 10.2733 40.603 9.57218 40.603 8.80092C40.603 7.73517 40.8421 6.83769 41.3344 6.06643C41.8125 5.30919 42.4454 4.74827 43.233 4.36965C44.0346 3.99103 44.8644 3.79471 45.7645 3.79471H47.4381V2.96735H47.3818ZM47.41 4.76229H46.3974C45.6942 4.76229 45.0613 4.91654 44.4987 5.22505C43.9362 5.51953 43.5002 5.98229 43.1767 6.57126C42.8673 7.17424 42.6986 7.8754 42.6986 8.70276C42.6986 9.82459 42.9798 10.7922 43.5283 11.5634C44.0768 12.3347 44.8222 12.7273 45.7504 12.7273C46.2427 12.7273 46.6083 12.6853 46.8334 12.6011C47.0584 12.517 47.199 12.3347 47.2975 12.0823C47.3818 11.8159 47.424 11.3811 47.424 10.7782V4.76229H47.41ZM49.407 10.7782C49.407 11.3811 49.4492 11.8159 49.5336 12.0823C49.618 12.3487 49.7727 12.531 49.9837 12.6011C50.2087 12.6853 50.5462 12.7273 51.0525 12.7273C51.5307 12.7273 51.9667 12.6292 52.3464 12.4188C52.7261 12.1945 53.0355 11.914 53.3028 11.5354C53.57 11.1568 53.7669 10.7221 53.8934 10.2313C54.02 9.75447 54.0903 9.23563 54.0903 8.70276C54.0903 8.08574 53.9919 7.5108 53.8231 7.01999C53.6403 6.52919 53.3871 6.12252 53.0637 5.78597C52.7261 5.44942 52.3464 5.21103 51.8964 5.02873C51.4463 4.87448 50.9541 4.77631 50.4056 4.77631H49.393V10.7782H49.407Z" fill="white"/>
<path d="M59.9688 9.0954C60.0813 9.78253 60.3345 10.3995 60.7142 10.9605C61.0939 11.5214 61.6002 11.9701 62.1909 12.3207C62.7816 12.6432 63.4285 12.8115 64.1036 12.8115C64.4833 12.8115 64.9052 12.7133 65.3693 12.517C65.8335 12.3067 66.2132 12.0963 66.5085 11.8299C66.8742 11.5214 67.2258 11.0306 67.5774 10.3294L67.7602 10.4136L66.7195 13.6809C66.5788 13.5828 66.4241 13.5547 66.2694 13.5547C66.1851 13.5547 66.0585 13.5547 65.8897 13.5828L63.7942 13.7791C63.1472 13.7791 62.4581 13.6809 61.7408 13.4706C61.0236 13.2742 60.3626 12.9657 59.7438 12.5591C59.139 12.1384 58.6468 11.6055 58.2671 10.9605C57.8873 10.3014 57.6904 9.55815 57.6904 8.71677C57.6904 7.74919 57.9155 6.87976 58.3796 6.1085C58.8296 5.32321 59.4625 4.72023 60.2641 4.28551C61.0658 3.8508 61.9518 3.64046 62.9222 3.64046C64.0192 3.64046 65.0037 3.92092 65.8756 4.53793C66.7335 5.15494 67.3102 5.99631 67.5774 7.01999L59.9688 9.0954ZM65.2568 6.73954C65.0459 6.12252 64.7224 5.6177 64.3005 5.19701C63.8786 4.7623 63.3582 4.55195 62.7535 4.55195C62.1346 4.55195 61.6002 4.72022 61.1642 5.0708C60.7282 5.40735 60.3907 5.87011 60.1798 6.44505C59.9547 7.02 59.8563 7.62298 59.8563 8.26804L65.2568 6.73954Z" fill="white"/>
<path d="M77.633 13.6809C77.4642 13.6248 77.3236 13.5827 77.2111 13.5827L76.8595 13.5968L76.2829 13.6529L74.9609 13.737C73.8779 13.737 72.8794 13.5266 71.9512 13.0779C71.023 12.6432 70.2635 12.0262 69.7291 11.1848C69.1665 10.3715 68.8853 9.41792 68.8853 8.33815C68.8853 7.4547 69.0962 6.62734 69.5041 5.91217C69.9119 5.19699 70.4885 4.62205 71.2199 4.21539C71.9371 3.80872 72.7528 3.6124 73.6529 3.6124L75.0734 3.71056L76.3532 3.82274C76.6907 3.82274 76.9579 3.76665 77.197 3.62642L77.7737 6.65539L77.6611 6.7255C77.3236 6.03837 76.8736 5.50551 76.311 5.14091C75.7484 4.76229 75.1156 4.56596 74.3842 4.56596C73.7232 4.56596 73.1326 4.76229 72.6122 5.14091C72.1059 5.51953 71.7121 6.01033 71.4449 6.61331C71.1777 7.23033 71.0511 7.86137 71.0511 8.50643C71.0511 9.10942 71.1636 9.68435 71.3886 10.2172C71.6137 10.7361 71.9231 11.2129 72.3309 11.6055C72.7247 12.0122 73.1607 12.3066 73.6529 12.517C74.1311 12.7133 74.5952 12.8255 75.0593 12.8255C75.7625 12.8255 76.4376 12.6292 77.0845 12.2646C77.7174 11.886 78.2096 11.4092 78.5331 10.7922L78.6737 10.8623L77.633 13.6809Z" fill="white"/>
<path d="M88.3919 13.6809C88.2372 13.6248 88.0966 13.5827 87.97 13.5827L87.6184 13.5968L87.0418 13.6529L85.7198 13.737C84.6368 13.737 83.6383 13.5266 82.7101 13.0779C81.7819 12.6432 81.0365 12.0262 80.488 11.1848C79.9254 10.3715 79.6582 9.41792 79.6582 8.33815C79.6582 7.4547 79.8692 6.62734 80.277 5.91217C80.6849 5.19699 81.2615 4.62205 81.9788 4.21539C82.7101 3.80872 83.5117 3.6124 84.4259 3.6124L85.8463 3.71056L87.1261 3.82274C87.4496 3.82274 87.7309 3.76665 87.97 3.62642L88.5466 6.65539L88.4341 6.7255C88.0966 6.03837 87.6606 5.50551 87.098 5.14091C86.5495 4.76229 85.9026 4.56596 85.1713 4.56596C84.4962 4.56596 83.9196 4.76229 83.3992 5.14091C82.8929 5.51953 82.4991 6.01033 82.2319 6.61331C81.9788 7.23033 81.8381 7.86137 81.8381 8.50643C81.8381 9.10942 81.9506 9.68435 82.1756 10.2172C82.4007 10.7361 82.7241 11.2129 83.1179 11.6055C83.5117 12.0122 83.9618 12.3066 84.4259 12.517C84.904 12.7133 85.3822 12.8255 85.8463 12.8255C86.5495 12.8255 87.2246 12.6292 87.8715 12.2646C88.5185 11.886 88.9967 11.4092 89.3201 10.7922L89.4608 10.8623L88.3919 13.6809Z" fill="white"/>
<path d="M98.2366 6.16459L93.5252 10.2453V11.1147C93.5252 11.8299 93.5956 12.3768 93.7362 12.7975C93.8768 13.1901 94.2003 13.3864 94.7207 13.3864V13.5547H90.2905V13.3864C90.6562 13.3444 90.9375 13.2041 91.1062 12.9938C91.275 12.7834 91.3875 12.531 91.4297 12.2225C91.4719 11.928 91.486 11.5634 91.486 11.1147V6.23471C91.486 5.75792 91.4578 5.39332 91.4297 5.11286C91.3875 4.81838 91.275 4.56597 91.0922 4.3416C90.9093 4.13126 90.6421 4.00505 90.2905 3.977V3.79471H94.7207V3.977C94.2003 3.977 93.8768 4.17332 93.7362 4.56597C93.5956 4.97263 93.5252 5.51953 93.5252 6.23471V9.13746L98.2366 5.05677C98.2226 4.88849 98.1523 4.67815 97.9976 4.42574C97.8569 4.1593 97.5335 4.01907 97.0412 3.977V3.79471H101.471V3.977C100.951 3.977 100.628 4.17332 100.487 4.56597C100.346 4.97263 100.276 5.51953 100.276 6.23471V11.1147C100.276 11.8299 100.346 12.3768 100.487 12.7975C100.628 13.1901 100.951 13.3864 101.471 13.3864V13.5547H97.0412V13.3864C97.5616 13.3303 97.8991 13.106 98.0257 12.7133C98.1663 12.3207 98.2366 11.8018 98.2366 11.1147V6.16459Z" fill="white"/>
<path d="M102.779 8.73079C102.779 7.72113 103.018 6.82366 103.511 6.02435C103.989 5.23906 104.664 4.63608 105.508 4.24344C106.352 3.80872 107.294 3.6124 108.335 3.6124C109.347 3.6124 110.261 3.7947 111.091 4.18734C111.921 4.59401 112.554 5.15493 113.018 5.88412C113.482 6.62734 113.707 7.51079 113.707 8.54849C113.707 9.5862 113.468 10.4977 112.962 11.297C112.469 12.0823 111.808 12.6853 110.965 13.106C110.121 13.5407 109.178 13.751 108.124 13.751C107.35 13.751 106.647 13.6388 106.014 13.4145C105.381 13.1761 104.805 12.8535 104.326 12.4188C103.834 11.9701 103.454 11.4372 103.173 10.8202C102.92 10.1892 102.779 9.48803 102.779 8.73079ZM105.044 8.33815C105.044 9.06734 105.17 9.76849 105.381 10.4416C105.606 11.1287 105.972 11.6756 106.45 12.1384C106.928 12.5731 107.547 12.7975 108.292 12.7975C108.925 12.7975 109.474 12.6011 109.952 12.2506C110.416 11.886 110.782 11.3952 111.035 10.7781C111.274 10.1611 111.4 9.50205 111.4 8.82895C111.4 8.11378 111.288 7.44068 111.077 6.79562C110.852 6.13654 110.5 5.60366 110.022 5.18297C109.53 4.76229 108.925 4.56596 108.194 4.56596C107.139 4.56596 106.337 4.93056 105.817 5.64574C105.311 6.36091 105.044 7.25838 105.044 8.33815Z" fill="white"/>
<path d="M122.961 7.91746H118.264V11.1147C118.264 11.8299 118.334 12.3768 118.475 12.7975C118.616 13.1901 118.953 13.3864 119.459 13.3864V13.5547H115.029V13.3864C115.536 13.3864 115.873 13.1901 116.014 12.8115C116.154 12.4329 116.225 11.8579 116.225 11.1287V6.24873C116.225 5.75793 116.211 5.3793 116.154 5.07079C116.112 4.76229 116.014 4.5239 115.831 4.29954C115.662 4.10321 115.381 3.99103 115.029 3.99103V3.80872H119.459V3.977C118.939 3.977 118.616 4.17332 118.475 4.56597C118.334 4.97263 118.264 5.51953 118.264 6.23471V7.01999H122.961V6.23471C122.961 5.50551 122.905 4.97263 122.764 4.56597C122.624 4.17332 122.286 3.977 121.78 3.977V3.79471H126.21V3.977C125.69 3.977 125.366 4.17332 125.212 4.56597C125.085 4.97263 125.001 5.51953 125.001 6.23471V11.1147C125.001 11.8299 125.071 12.3768 125.212 12.7975C125.352 13.1901 125.69 13.3864 126.21 13.3864V13.5547H121.78V13.3864C122.3 13.3864 122.624 13.1901 122.764 12.7975C122.905 12.3908 122.961 11.8299 122.961 11.1147V7.91746Z" fill="white"/>
<path d="M135.295 13.5547C134.873 13.0078 134.634 12.4188 134.634 11.7738C134.255 12.4329 133.706 12.9377 132.989 13.2602C132.272 13.5828 131.484 13.7651 130.654 13.7651C129.726 13.7651 128.967 13.5547 128.39 13.148C127.799 12.7274 127.504 12.1664 127.504 11.4513C127.504 10.7221 127.743 10.1051 128.207 9.5862C128.685 9.08137 129.276 8.66069 129.993 8.35218C130.696 8.04368 131.526 7.77724 132.468 7.53885C133.411 7.31448 134.072 7.16022 134.451 7.06206V6.68344C134.451 5.95425 134.311 5.44941 134.001 5.15493C133.706 4.87447 133.186 4.72022 132.44 4.72022C131.484 4.72022 130.626 4.94459 129.881 5.39333C129.149 5.85609 128.573 6.51517 128.179 7.39862L128.502 4.14528C128.742 4.32758 128.938 4.41171 129.107 4.41171C129.248 4.41171 129.473 4.35563 129.782 4.24344C130.443 4.00505 131.006 3.86482 131.498 3.75263C131.99 3.64045 132.567 3.59839 133.242 3.59839C133.903 3.59839 134.437 3.64045 134.859 3.75263C135.267 3.86482 135.619 4.07517 135.872 4.32758C136.139 4.59402 136.322 4.91655 136.434 5.33724C136.561 5.7439 136.617 6.26275 136.617 6.9078V10.6239C136.617 11.1568 136.631 11.5915 136.688 11.914C136.73 12.2646 136.87 12.5591 137.067 12.8115C137.278 13.0779 137.602 13.2602 138.024 13.3584V13.5267H135.295V13.5547ZM134.451 7.86137C133.298 8.11378 132.229 8.49241 131.245 9.0393C130.26 9.57218 129.768 10.2873 129.768 11.1708C129.768 11.6055 129.937 11.9561 130.246 12.2225C130.57 12.503 130.95 12.6292 131.386 12.6292C132.511 12.6292 133.298 12.2365 133.748 11.4372C134.212 10.6379 134.437 9.61425 134.437 8.35218V7.86137H134.451Z" fill="white"/>
<path d="M143.987 4.5239C143.607 4.5239 143.255 4.60804 142.932 4.74827C142.608 4.87448 142.313 5.11286 142.06 5.36528C141.793 5.65976 141.525 6.02436 141.3 6.48712C141.061 6.94988 140.85 7.45471 140.667 8.0016C140.485 8.57655 140.358 9.15148 140.26 9.76849C140.161 10.3715 140.119 11.0165 140.119 11.6756C140.119 12.0683 140.26 12.4469 140.569 12.7975C140.864 13.134 141.3 13.3303 141.877 13.3864V13.5547H138.586C138.586 12.8676 138.628 12.0823 138.741 11.2129C138.839 10.3575 139.064 9.37585 139.444 8.28206C139.824 7.20229 140.386 6.13655 141.146 5.14091C141.314 4.8885 141.371 4.67816 141.371 4.49586C141.371 4.15931 141.188 3.99102 140.822 3.96298V3.79471H148.543V3.96298C148.037 3.96298 147.699 4.15931 147.559 4.55195C147.418 4.95862 147.348 5.50551 147.348 6.23471V11.1147C147.348 11.8299 147.418 12.3768 147.559 12.7975C147.699 13.1901 148.037 13.3864 148.543 13.3864V13.5547H144.099V13.3864C144.633 13.3864 144.971 13.1901 145.112 12.8115C145.252 12.4329 145.323 11.8579 145.323 11.1287V6.24873C145.323 5.8 145.309 5.47746 145.252 5.26712C145.21 5.04275 145.098 4.87448 144.915 4.74827C144.718 4.59402 144.408 4.5239 143.987 4.5239Z" fill="white"/>
<path d="M149.739 13.5547V13.3864C150.104 13.3444 150.372 13.2041 150.554 12.9938C150.737 12.7834 150.836 12.531 150.878 12.2365C150.92 11.9421 150.934 11.5775 150.934 11.1147V6.23471C150.934 5.77195 150.92 5.40736 150.864 5.1269C150.822 4.83241 150.723 4.58 150.54 4.36965C150.358 4.14528 150.09 4.01908 149.739 3.99104V3.80873H154.366V3.97701C153.93 4.00506 153.606 4.13126 153.409 4.35563C153.213 4.56597 153.086 4.81839 153.044 5.11287C152.988 5.39333 152.973 5.77195 152.973 6.22069V7.04805C154.225 7.04805 155.35 7.18828 156.363 7.45472C157.361 7.72115 158.149 8.12782 158.726 8.68874C159.302 9.22161 159.584 9.88069 159.584 10.652C159.584 11.2409 159.401 11.7598 159.021 12.1805C158.641 12.6292 158.079 12.9517 157.347 13.1901C156.602 13.4145 155.744 13.5407 154.746 13.5407H149.739V13.5547ZM152.973 11.1287C152.973 11.6616 153.002 12.0402 153.058 12.2506C153.128 12.4609 153.241 12.5871 153.409 12.6572C153.564 12.6993 153.874 12.7274 154.324 12.7274C155.224 12.7274 155.941 12.5451 156.489 12.1805C157.038 11.8159 157.305 11.283 157.305 10.6239C157.305 10.091 157.136 9.5862 156.799 9.17954C156.461 8.75885 155.969 8.43632 155.322 8.22597C154.675 7.98758 153.888 7.8754 152.988 7.8754V11.1287H152.973Z" fill="white"/>
<path d="M168.444 7.91746H163.732V11.1147C163.732 11.8299 163.803 12.3768 163.943 12.7975C164.084 13.1901 164.407 13.3864 164.928 13.3864V13.5547H160.498V13.3864C161.018 13.3864 161.341 13.1901 161.482 12.8115C161.623 12.4329 161.693 11.8579 161.693 11.1287V6.24873C161.693 5.75793 161.665 5.3793 161.637 5.07079C161.595 4.76229 161.482 4.5239 161.313 4.29954C161.145 4.10321 160.863 3.99103 160.512 3.99103V3.80872H164.942V3.977C164.421 3.977 164.098 4.17332 163.957 4.56597C163.817 4.97263 163.746 5.51953 163.746 6.23471V7.01999H168.458V6.23471C168.458 5.50551 168.387 4.97263 168.247 4.56597C168.106 4.17332 167.783 3.977 167.262 3.977V3.79471H171.692V3.977C171.172 3.977 170.849 4.17332 170.708 4.56597C170.567 4.97263 170.497 5.51953 170.497 6.23471V11.1147C170.497 11.8299 170.567 12.3768 170.708 12.7975C170.849 13.1901 171.172 13.3864 171.692 13.3864V13.5547H167.262V13.3864C167.783 13.3864 168.106 13.1901 168.247 12.7975C168.387 12.3908 168.458 11.8299 168.458 11.1147V7.91746H168.444Z" fill="white"/>
<path d="M180.764 13.5547C180.342 13.0078 180.117 12.4188 180.089 11.7738C179.723 12.4329 179.175 12.9377 178.444 13.2602C177.726 13.5828 176.953 13.7651 176.123 13.7651C175.195 13.7651 174.435 13.5547 173.845 13.148C173.254 12.7274 172.973 12.1664 172.973 11.4513C172.973 10.7221 173.212 10.1051 173.69 9.5862C174.168 9.08137 174.759 8.66069 175.462 8.35218C176.179 8.04368 177.009 7.77724 177.951 7.53885C178.894 7.31448 179.555 7.16022 179.934 7.06206V6.68344C179.934 5.95425 179.78 5.44941 179.484 5.15493C179.189 4.87447 178.669 4.72022 177.923 4.72022C176.953 4.72022 176.109 4.94459 175.378 5.39333C174.632 5.85609 174.07 6.51517 173.676 7.39862L173.999 4.14528C174.238 4.32758 174.435 4.41171 174.59 4.41171C174.731 4.41171 174.956 4.35563 175.265 4.24344C175.912 4.00505 176.489 3.86482 176.981 3.75263C177.473 3.64045 178.064 3.59839 178.725 3.59839C179.386 3.59839 179.92 3.64045 180.342 3.75263C180.764 3.86482 181.102 4.07517 181.369 4.32758C181.636 4.59402 181.819 4.91655 181.931 5.33724C182.044 5.7439 182.1 6.26275 182.1 6.9078V10.6239C182.1 11.1568 182.128 11.5915 182.17 11.914C182.213 12.2646 182.339 12.5591 182.564 12.8115C182.775 13.0779 183.085 13.2602 183.521 13.3584V13.5267H180.764V13.5547ZM179.934 7.86137C178.767 8.11378 177.698 8.49241 176.714 9.0393C175.743 9.57218 175.251 10.2873 175.251 11.1708C175.251 11.6055 175.406 11.9561 175.729 12.2225C176.039 12.503 176.432 12.6292 176.868 12.6292C177.979 12.6292 178.767 12.2365 179.231 11.4372C179.695 10.6379 179.934 9.61425 179.934 8.35218V7.86137Z" fill="white"/>
<path d="M187.515 7.98758C185.714 7.35655 184.828 6.55723 184.828 5.61769C184.828 5.0708 185.025 4.65011 185.419 4.38367C185.813 4.13126 186.277 3.96298 186.811 3.87885C187.332 3.82275 187.993 3.78069 188.752 3.78069H194.42V3.97701C193.9 3.97701 193.576 4.17333 193.436 4.58C193.295 4.98666 193.225 5.53356 193.225 6.22068V11.1007C193.225 11.8018 193.295 12.3487 193.436 12.7554C193.576 13.1621 193.9 13.3724 194.42 13.3724V13.5407H189.976L189.99 13.3163C190.341 13.3163 190.595 13.2182 190.763 13.0218C190.932 12.8115 191.059 12.5451 191.115 12.2365C191.157 11.914 191.185 11.5494 191.185 11.1147V8.81493C191.115 8.80091 190.876 8.73079 190.44 8.66068C190.018 8.57654 189.709 8.52045 189.526 8.46436C189.216 8.81493 188.921 9.19356 188.626 9.55816C188.344 9.9508 188.091 10.3294 187.852 10.7221C187.613 11.1007 187.416 11.4793 187.233 11.8299C187.107 12.0963 187.036 12.3487 187.036 12.5871C187.036 13.0078 187.29 13.2743 187.782 13.3584V13.5267H183.521V13.3584C183.914 13.2322 184.491 12.489 185.25 11.1147C185.841 10.1471 186.586 9.0954 187.515 7.98758ZM191.199 7.93149V6.03839C191.199 5.63172 191.185 5.36529 191.157 5.19701C191.129 5.01471 191.059 4.90252 190.932 4.81838C190.806 4.73425 190.623 4.67816 190.356 4.63609C190.088 4.62207 189.638 4.62206 188.991 4.62206C187.712 4.62206 187.065 5.00069 187.065 5.8C187.065 6.22069 187.261 6.57126 187.655 6.87976C188.035 7.18827 188.527 7.41264 189.076 7.53885L191.199 7.93149Z" fill="white"/>
<path d="M207.429 4.5239C207.049 4.5239 206.712 4.60804 206.374 4.74827C206.051 4.87448 205.755 5.11286 205.502 5.36528C205.235 5.65976 204.968 6.02436 204.729 6.48712C204.49 6.94988 204.279 7.45471 204.096 8.0016C203.913 8.57655 203.772 9.15148 203.688 9.76849C203.589 10.3715 203.547 11.0165 203.547 11.6756C203.547 12.0683 203.688 12.4469 203.997 12.7975C204.293 13.134 204.743 13.3303 205.319 13.3864V13.5547H202.028C202.028 12.8676 202.071 12.0823 202.169 11.2129C202.267 10.3575 202.506 9.37585 202.886 8.28206C203.266 7.20229 203.829 6.13655 204.588 5.14091C204.743 4.8885 204.827 4.67816 204.827 4.49586C204.827 4.15931 204.644 3.99102 204.279 3.96298V3.79471H212V3.96298C211.479 3.96298 211.156 4.15931 211.015 4.55195C210.875 4.95862 210.818 5.50551 210.818 6.23471V11.1147C210.818 11.8299 210.889 12.3768 211.015 12.7975C211.156 13.1901 211.479 13.3864 212 13.3864V13.5547H207.555V13.3864C208.09 13.3864 208.427 13.1901 208.568 12.8115C208.709 12.4329 208.765 11.8579 208.765 11.1287V6.24873C208.765 5.8 208.751 5.47746 208.695 5.26712C208.652 5.04275 208.54 4.87448 208.357 4.74827C208.146 4.59402 207.851 4.5239 207.429 4.5239Z" fill="white"/>
<path d="M213.294 8.73079C213.294 7.72113 213.533 6.82366 214.025 6.02435C214.517 5.23906 215.164 4.63608 216.022 4.24344C216.866 3.80872 217.794 3.6124 218.835 3.6124C219.848 3.6124 220.762 3.7947 221.592 4.18734C222.407 4.59401 223.054 5.15493 223.518 5.88412C223.983 6.62734 224.222 7.51079 224.222 8.54849C224.222 9.5862 223.968 10.4977 223.476 11.297C222.984 12.0823 222.323 12.6853 221.479 13.106C220.635 13.5407 219.693 13.751 218.638 13.751C217.865 13.751 217.162 13.6388 216.529 13.4145C215.896 13.1761 215.333 12.8535 214.841 12.4188C214.349 11.9701 213.969 11.4372 213.702 10.8202C213.421 10.1892 213.294 9.48803 213.294 8.73079ZM215.558 8.33815C215.558 9.06734 215.671 9.76849 215.896 10.4416C216.121 11.1287 216.472 11.6756 216.965 12.1384C217.443 12.5731 218.062 12.7975 218.807 12.7975C219.426 12.7975 219.974 12.6011 220.467 12.2506C220.945 11.886 221.296 11.3952 221.549 10.7781C221.803 10.1611 221.915 9.50205 221.915 8.82895C221.915 8.11378 221.817 7.44068 221.592 6.79562C221.367 6.13654 221.015 5.60366 220.537 5.18297C220.045 4.76229 219.44 4.56596 218.709 4.56596C217.654 4.56596 216.852 4.93056 216.332 5.64574C215.825 6.36091 215.558 7.25838 215.558 8.33815Z" fill="white"/>
<path d="M232.182 3.79471C232.547 3.79471 232.814 3.78068 232.983 3.75263C233.152 3.71056 233.279 3.64046 233.363 3.5423L234.347 7.46873L234.165 7.51079C233.883 6.82367 233.602 6.27678 233.293 5.88413C232.997 5.49149 232.589 5.21103 232.097 5.00069C231.605 4.80437 230.958 4.72022 230.17 4.72022C229.72 4.72022 229.397 4.76229 229.214 4.87448C229.017 4.98666 228.905 5.12689 228.848 5.30919C228.806 5.49148 228.778 5.81402 228.778 6.23471V11.1147C228.778 11.8299 228.848 12.3768 228.989 12.7834C229.13 13.1761 229.467 13.3724 229.974 13.3724V13.5407H225.543V13.3724C225.923 13.3303 226.19 13.2041 226.359 12.9938C226.542 12.7975 226.64 12.5451 226.683 12.2506C226.725 11.9561 226.739 11.5775 226.739 11.1147V6.22068C226.739 5.75792 226.725 5.39332 226.668 5.11287C226.626 4.83241 226.514 4.57999 226.331 4.35562C226.148 4.13125 225.895 4.00505 225.529 3.97701V3.79471H232.182Z" fill="white"/>
<path d="M242.645 6.16459L237.948 10.2453V11.1147C237.948 11.8299 238.018 12.3768 238.159 12.7975C238.299 13.1901 238.637 13.3864 239.143 13.3864V13.5547H234.713V13.3864C235.079 13.3444 235.36 13.2041 235.529 12.9938C235.711 12.7834 235.81 12.531 235.852 12.2225C235.894 11.928 235.908 11.5634 235.908 11.1147V6.23471C235.908 5.75792 235.894 5.39332 235.838 5.11286C235.796 4.81838 235.683 4.56597 235.515 4.3416C235.332 4.13126 235.064 4.00505 234.713 3.977V3.79471H239.143V3.977C238.623 3.977 238.299 4.17332 238.159 4.56597C238.018 4.97263 237.948 5.51953 237.948 6.23471V9.13746L242.645 5.05677C242.631 4.88849 242.561 4.67815 242.406 4.42574C242.251 4.1593 241.942 4.01907 241.435 3.977V3.79471H245.866V3.977C245.345 3.977 245.008 4.17332 244.881 4.56597C244.74 4.97263 244.67 5.51953 244.67 6.23471V11.1147C244.67 11.8299 244.74 12.3768 244.881 12.7975C245.022 13.1901 245.345 13.3864 245.866 13.3864V13.5547H241.435V13.3864C241.956 13.3303 242.293 13.106 242.434 12.7133C242.561 12.3207 242.631 11.8018 242.631 11.1147V6.16459H242.645Z" fill="white"/>
<path d="M255.964 13.6809C255.795 13.6248 255.669 13.5827 255.542 13.5827L255.176 13.5968L254.6 13.6529L253.278 13.737C252.195 13.737 251.196 13.5266 250.268 13.0779C249.34 12.6432 248.594 12.0262 248.046 11.1848C247.497 10.3715 247.202 9.41792 247.202 8.33815C247.202 7.4547 247.413 6.62734 247.821 5.91217C248.243 5.19699 248.805 4.62205 249.523 4.21539C250.254 3.80872 251.056 3.6124 251.956 3.6124L253.376 3.71056L254.656 3.82274C254.98 3.82274 255.261 3.76665 255.486 3.62642L256.062 6.65539L255.95 6.7255C255.612 6.03837 255.162 5.50551 254.614 5.14091C254.051 4.76229 253.418 4.56596 252.687 4.56596C252.012 4.56596 251.421 4.76229 250.915 5.14091C250.409 5.51953 250.015 6.01033 249.748 6.61331C249.481 7.23033 249.354 7.86137 249.354 8.50643C249.354 9.10942 249.466 9.68435 249.691 10.2172C249.916 10.7361 250.24 11.2129 250.634 11.6055C251.042 12.0122 251.478 12.3066 251.956 12.517C252.434 12.7133 252.912 12.8255 253.376 12.8255C254.079 12.8255 254.754 12.6292 255.401 12.2646C256.048 11.886 256.512 11.4092 256.85 10.7922L256.991 10.8623L255.964 13.6809Z" fill="white"/>
<path d="M263.249 11.1147C263.249 11.8159 263.319 12.3628 263.474 12.7554C263.615 13.148 263.98 13.3584 264.543 13.3724V13.5407H259.902V13.3724C260.478 13.3444 260.844 13.148 260.985 12.7554C261.139 12.3768 261.21 11.8299 261.21 11.1147V4.72022C260.408 4.72022 259.761 4.81839 259.269 5.00069C258.777 5.19701 258.383 5.49149 258.073 5.88413C257.778 6.27678 257.483 6.82367 257.201 7.51079L257.019 7.46873L258.003 3.5423C258.087 3.64046 258.214 3.72459 258.383 3.75263C258.552 3.76666 258.819 3.79471 259.184 3.79471H265.288C265.654 3.79471 265.921 3.78068 266.09 3.75263C266.259 3.71056 266.385 3.64046 266.47 3.5423L267.454 7.46873L267.271 7.51079C266.99 6.82367 266.709 6.27678 266.399 5.88413C266.09 5.49149 265.696 5.21103 265.204 5.00069C264.712 4.80437 264.065 4.72022 263.263 4.72022V11.1147H263.249Z" fill="white"/>
<path d="M275.766 6.16459L271.055 10.2453V11.1147C271.055 11.8299 271.125 12.3768 271.266 12.7975C271.406 13.1901 271.73 13.3864 272.25 13.3864V13.5547H267.82V13.3864C268.185 13.3444 268.467 13.2041 268.636 12.9938C268.804 12.7834 268.917 12.531 268.959 12.2225C269.001 11.928 269.015 11.5634 269.015 11.1147V6.23471C269.015 5.75792 268.987 5.39332 268.945 5.11286C268.903 4.81838 268.79 4.56597 268.621 4.3416C268.439 4.13126 268.171 4.00505 267.82 3.977V3.79471H272.25V3.977C271.73 3.977 271.406 4.17332 271.266 4.56597C271.125 4.97263 271.055 5.51953 271.055 6.23471V9.13746L275.766 5.05677C275.766 4.88849 275.682 4.67815 275.527 4.42574C275.386 4.1593 275.063 4.01907 274.571 3.977V3.79471H279.001V3.977C278.48 3.977 278.157 4.17332 278.016 4.56597C277.876 4.97263 277.805 5.51953 277.805 6.23471V11.1147C277.805 11.8299 277.876 12.3768 278.016 12.7975C278.157 13.1901 278.48 13.3864 279.001 13.3864V13.5547H274.571V13.3864C275.091 13.3303 275.428 13.106 275.569 12.7133C275.71 12.3207 275.78 11.8018 275.78 11.1147V6.16459H275.766Z" fill="white"/>
<path d="M283.571 8.08575L286.201 5.5616C286.694 5.11287 286.947 4.72023 286.947 4.41172C286.947 4.17333 286.75 4.03311 286.384 3.99104V3.80873H290.463V3.97701C290.111 4.01908 289.788 4.13126 289.492 4.25747C289.197 4.38367 288.902 4.55195 288.62 4.76229C288.353 4.95862 288.086 5.14092 287.861 5.35127C287.636 5.53357 287.355 5.78598 287.017 6.09448L286.511 6.51517C287.059 7.03402 287.551 7.60896 288.016 8.21195C288.466 8.81494 288.859 9.40391 289.211 9.97885C289.548 10.5678 289.97 11.311 290.449 12.2085C290.505 12.3067 290.575 12.4329 290.66 12.6012C290.744 12.7694 290.828 12.8956 290.913 12.9938C290.997 13.092 291.096 13.1761 291.208 13.2462C291.321 13.3163 291.475 13.3724 291.644 13.4005V13.5687H287.397V13.4005C287.58 13.4005 287.734 13.3303 287.861 13.2182C288.001 13.106 288.072 12.9517 288.072 12.7694C288.072 12.3908 287.889 11.8579 287.537 11.1708C287.186 10.4697 286.764 9.79655 286.272 9.12344C285.779 8.47839 285.372 8.01563 285.02 7.7492L283.585 9.02528V11.1147C283.585 11.6476 283.599 12.0683 283.642 12.3628C283.684 12.6713 283.782 12.9237 283.965 13.106C284.134 13.3023 284.415 13.4005 284.781 13.4005V13.5687H280.365V13.4005C280.885 13.3303 281.223 13.12 281.363 12.7414C281.504 12.3628 281.574 11.8299 281.574 11.1287V6.24874C281.574 5.77196 281.546 5.40736 281.518 5.1269C281.476 4.83241 281.363 4.57999 281.18 4.35563C280.998 4.14528 280.73 4.01908 280.379 3.99104V3.80873H284.795V3.97701C284.275 3.97701 283.951 4.17333 283.81 4.56597C283.67 4.97264 283.599 5.51954 283.599 6.23471V8.08575H283.571Z" fill="white"/>
<path d="M300.054 13.5547C299.618 13.0078 299.407 12.4188 299.379 11.7738C299.013 12.4329 298.465 12.9377 297.733 13.2602C297.002 13.5828 296.229 13.7651 295.399 13.7651C294.471 13.7651 293.711 13.5547 293.135 13.148C292.544 12.7274 292.249 12.1664 292.249 11.4513C292.249 10.7221 292.488 10.1051 292.966 9.5862C293.444 9.08137 294.035 8.66069 294.738 8.35218C295.441 8.04368 296.271 7.77724 297.213 7.53885C298.155 7.31448 298.816 7.16022 299.21 7.06206V6.68344C299.21 5.95425 299.055 5.44941 298.76 5.15493C298.465 4.87447 297.944 4.72022 297.199 4.72022C296.243 4.72022 295.385 4.94459 294.653 5.39333C293.908 5.85609 293.346 6.51517 292.952 7.39862L293.275 4.14528C293.514 4.32758 293.725 4.41171 293.88 4.41171C294.021 4.41171 294.246 4.35563 294.555 4.24344C295.202 4.00505 295.779 3.86482 296.271 3.75263C296.763 3.64045 297.34 3.59839 298.015 3.59839C298.676 3.59839 299.21 3.64045 299.632 3.75263C300.054 3.86482 300.392 4.07517 300.645 4.32758C300.912 4.59402 301.095 4.91655 301.207 5.33724C301.32 5.7439 301.376 6.26275 301.376 6.9078V10.6239C301.376 11.1568 301.404 11.5915 301.446 11.914C301.489 12.2646 301.629 12.5591 301.826 12.8115C302.037 13.0779 302.36 13.2602 302.782 13.3584V13.5267H300.054V13.5547ZM299.224 7.86137C298.057 8.11378 296.988 8.49241 296.004 9.0393C295.019 9.57218 294.527 10.2873 294.527 11.1708C294.527 11.6055 294.682 11.9561 295.005 12.2225C295.329 12.503 295.708 12.6292 296.144 12.6292C297.269 12.6292 298.057 12.2365 298.521 11.4372C298.985 10.6379 299.224 9.61425 299.224 8.35218V7.86137Z" fill="white"/>
</g>
<defs>
<clipPath id="clip0_1493_875">
<rect width="308" height="18" fill="white"/>
</clipPath>
</defs>
</svg>
